<svg width="174" height="43" viewBox="0 0 174 43" fill="none" xmlns="http://www.w3.org/2000/svg">
<path d="M17.3228 40.198C15.9148 40.198 14.8588 39.868 14.1548 39.208C13.4508 38.504 12.9888 37.624 12.7688 36.568C12.5928 35.512 12.5268 34.456 12.5708 33.4C11.9108 34.28 11.0968 35.248 10.1288 36.304C9.16078 37.316 8.10478 38.196 6.96078 38.944C5.81678 39.692 4.65078 40.066 3.46278 40.066C2.58278 40.066 1.85678 39.868 1.28478 39.472C0.712781 39.032 0.426781 38.35 0.426781 37.426C0.426781 35.886 0.910781 34.258 1.87878 32.542C2.89078 30.826 4.16678 29.198 5.70678 27.658C7.24678 26.074 8.89678 24.798 10.6568 23.83C12.4168 22.862 14.0668 22.378 15.6068 22.378C16.0468 22.378 16.6628 22.466 17.4548 22.642C18.2468 22.818 18.9508 23.082 19.5668 23.434C20.2268 23.786 20.5568 24.27 20.5568 24.886C20.5568 25.194 20.3588 25.37 19.9628 25.414C19.5668 25.458 19.2808 25.59 19.1048 25.81C17.8288 27.35 17.1908 29.836 17.1908 33.268C17.1908 33.708 17.2128 34.302 17.2568 35.05C17.3008 35.798 17.4548 36.458 17.7188 37.03C18.0268 37.602 18.4888 37.888 19.1048 37.888C20.0288 37.888 21.0188 37.492 22.0748 36.7C23.1308 35.908 24.1868 34.962 25.2428 33.862C26.2988 32.718 27.2668 31.684 28.1468 30.76C28.2348 30.628 28.3228 30.562 28.4108 30.562C28.6308 30.562 28.8068 30.694 28.9388 30.958C29.1148 31.178 29.1148 31.376 28.9388 31.552C27.8828 32.784 26.8488 33.884 25.8368 34.852C24.8688 35.82 23.8568 36.744 22.8008 37.624C20.7768 39.34 18.9508 40.198 17.3228 40.198ZM7.02678 37.03C8.03878 36.458 9.05078 35.556 10.0628 34.324C11.1188 33.092 12.1088 31.684 13.0328 30.1C14.0008 28.516 14.8148 26.932 15.4748 25.348C14.4188 25.348 13.2308 25.744 11.9108 26.536C10.5908 27.284 9.33678 28.252 8.14878 29.44C6.96078 30.584 5.97078 31.794 5.17878 33.07C4.43078 34.302 4.05678 35.424 4.05678 36.436C4.05678 37.272 4.38678 37.69 5.04678 37.69C5.53078 37.69 6.19078 37.47 7.02678 37.03ZM28.3448 42.838C28.0368 42.838 27.5748 42.816 26.9588 42.772C26.3868 42.728 25.8588 42.596 25.3748 42.376C24.8908 42.2 24.6488 41.892 24.6488 41.452C24.6488 41.188 24.7368 40.99 24.9128 40.858C25.1328 40.726 25.3528 40.66 25.5728 40.66C26.0568 40.66 26.6068 40.77 27.2228 40.99C27.8388 41.254 28.3668 41.386 28.8068 41.386C30.6108 41.386 32.2828 40.902 33.8228 39.934C35.3628 38.922 36.7048 37.624 37.8488 36.04C38.9928 34.456 39.8948 32.762 40.5548 30.958C41.2588 29.154 41.6768 27.438 41.8088 25.81C41.8528 25.59 41.8748 25.414 41.8748 25.282C41.8748 25.106 41.8748 24.952 41.8748 24.82C41.8748 23.676 41.4788 23.104 40.6868 23.104C40.2468 23.104 39.7408 23.258 39.1688 23.566C38.5968 23.874 38.0028 24.27 37.3868 24.754C36.0668 25.81 34.7908 27.152 33.5588 28.78C32.3708 30.408 31.3808 32.058 30.5888 33.73C29.7968 35.358 29.4008 36.722 29.4008 37.822C29.4008 38.306 29.5988 38.614 29.9948 38.746C30.3908 38.878 30.5888 39.164 30.5888 39.604C30.5888 39.824 30.5008 39.978 30.3248 40.066C30.1488 40.198 29.9508 40.264 29.7308 40.264C28.4988 40.264 27.5968 39.89 27.0248 39.142C26.4968 38.394 26.2328 37.448 26.2328 36.304C26.2328 34.72 26.6068 33.004 27.3548 31.156C28.1028 29.264 29.0048 27.416 30.0608 25.612C31.1168 23.808 32.0628 22.268 32.8988 20.992C33.6468 19.892 34.6148 18.506 35.8028 16.834C36.9908 15.118 38.2888 13.336 39.6968 11.488C41.1488 9.64 42.6008 7.902 44.0528 6.274C45.5048 4.646 46.8468 3.326 48.0788 2.314C49.3548 1.302 50.4108 0.795997 51.2468 0.795997C51.5988 0.795997 52.0608 0.883997 52.6328 1.06C53.2488 1.192 53.5788 1.5 53.6228 1.984C53.4468 2.512 53.0068 3.062 52.3028 3.634C51.5988 4.162 51.0268 4.624 50.5868 5.02C48.5188 6.912 46.3628 9.112 44.1188 11.62C41.8748 14.128 39.7408 16.746 37.7168 19.474C35.7368 22.158 34.1088 24.754 32.8328 27.262C33.6248 26.382 34.5708 25.436 35.6708 24.424C36.7708 23.368 37.9588 22.466 39.2348 21.718C40.5108 20.97 41.7648 20.596 42.9968 20.596C44.0088 20.596 44.7348 20.904 45.1748 21.52C45.6588 22.092 45.9008 22.862 45.9008 23.83C45.9008 25.898 45.3948 28.054 44.3828 30.298C43.3708 32.498 42.0288 34.544 40.3568 36.436C38.6848 38.328 36.7928 39.868 34.6808 41.056C32.6128 42.244 30.5008 42.838 28.3448 42.838ZM49.9366 40.858C48.9246 40.858 48.1106 40.594 47.4946 40.066C46.9226 39.582 46.6366 38.812 46.6366 37.756C46.6366 36.084 47.0546 34.5 47.8906 33.004C48.7706 31.464 49.6946 30.078 50.6626 28.846C50.6186 28.626 50.5746 28.406 50.5306 28.186C50.5306 27.922 50.5306 27.68 50.5306 27.46C50.5306 26.184 50.8606 24.996 51.5206 23.896C52.2246 22.796 53.1266 21.916 54.2266 21.256C55.3706 20.552 56.5586 20.2 57.7906 20.2C59.3306 20.2 60.4746 20.64 61.2226 21.52C62.0146 22.356 62.4106 23.544 62.4106 25.084C62.4106 26.712 62.0146 28.384 61.2226 30.1C60.4746 31.772 59.6826 33.29 58.8466 34.654C59.0666 34.786 59.3966 34.918 59.8366 35.05C60.3206 35.182 60.7386 35.248 61.0906 35.248C62.6306 35.248 63.9506 34.984 65.0506 34.456C66.1946 33.884 67.5366 32.894 69.0766 31.486C69.2966 31.266 69.4726 31.156 69.6046 31.156C69.7806 31.156 69.8686 31.31 69.8686 31.618C69.8686 31.97 69.7146 32.322 69.4066 32.674C68.4386 33.862 67.1626 34.83 65.5786 35.578C63.9946 36.326 62.4546 36.7 60.9586 36.7C60.4306 36.7 59.9026 36.656 59.3746 36.568C58.8466 36.48 58.3406 36.348 57.8566 36.172C56.8886 37.404 55.7446 38.504 54.4246 39.472C53.1046 40.396 51.6086 40.858 49.9366 40.858ZM57.0646 33.796C57.5926 32.74 58.0546 31.53 58.4506 30.166C58.8466 28.802 59.0886 27.416 59.1766 26.008C59.2646 25.26 59.0886 24.49 58.6486 23.698C58.2526 22.906 57.5486 22.51 56.5366 22.51C55.5686 22.51 54.7546 22.862 54.0946 23.566C53.4786 24.27 53.1046 25.194 52.9726 26.338C53.2806 26.118 53.6766 25.92 54.1606 25.744C54.6886 25.568 55.1286 25.48 55.4806 25.48C56.0526 25.48 56.5146 25.634 56.8666 25.942C57.2186 26.206 57.3946 26.514 57.3946 26.866C57.3946 27.306 57.1086 27.614 56.5366 27.79C56.0086 27.966 55.4366 28.296 54.8206 28.78C54.2486 29.264 53.8306 29.704 53.5666 30.1C53.9186 30.804 54.4246 31.486 55.0846 32.146C55.7446 32.806 56.4046 33.356 57.0646 33.796ZM51.5206 38.944C51.9606 38.944 52.5106 38.724 53.1706 38.284C53.8306 37.8 54.4466 37.272 55.0186 36.7C55.6346 36.128 56.0746 35.666 56.3386 35.314C55.7226 34.962 54.9746 34.39 54.0946 33.598C53.2586 32.806 52.5986 32.124 52.1146 31.552C51.8506 31.86 51.5646 32.388 51.2566 33.136C50.9486 33.84 50.6846 34.588 50.4646 35.38C50.2446 36.172 50.1346 36.832 50.1346 37.36C50.1346 38.416 50.5966 38.944 51.5206 38.944ZM82.4601 40.99C81.0961 40.99 80.0401 40.55 79.2921 39.67C78.5441 38.79 78.1701 37.668 78.1701 36.304C78.1701 35.688 78.2581 35.028 78.4341 34.324C78.6101 33.576 78.8961 32.828 79.2921 32.08C78.8521 32.564 78.3021 33.202 77.6421 33.994C76.9821 34.786 76.2561 35.578 75.4641 36.37C74.7161 37.162 73.9241 37.822 73.0881 38.35C72.2961 38.878 71.5481 39.142 70.8441 39.142C69.6121 39.142 68.7761 38.724 68.3361 37.888C67.9401 37.052 67.7421 36.106 67.7421 35.05C67.7421 34.346 67.8961 33.488 68.2041 32.476C68.5561 31.464 69.0181 30.474 69.5901 29.506C70.1621 28.538 70.8221 27.746 71.5701 27.13C72.3181 26.47 73.1101 26.14 73.9461 26.14C74.2541 26.14 74.6061 26.206 75.0021 26.338C75.4421 26.47 75.6621 26.712 75.6621 27.064C75.6621 27.24 75.4421 27.636 75.0021 28.252C74.6061 28.824 74.1221 29.484 73.5501 30.232C73.0221 30.98 72.5381 31.75 72.0981 32.542C71.7021 33.29 71.5041 33.972 71.5041 34.588C71.5041 34.984 71.5481 35.38 71.6361 35.776C71.7681 36.128 72.0761 36.304 72.5601 36.304C73.4401 36.304 74.3201 35.886 75.2001 35.05C76.1241 34.17 77.0481 33.092 77.9721 31.816C78.8961 30.54 79.7761 29.286 80.6121 28.054C81.4921 26.778 82.2841 25.722 82.9881 24.886C83.7361 24.006 84.3741 23.566 84.9021 23.566C85.5181 23.566 86.0681 23.786 86.5521 24.226C87.0801 24.622 87.3441 25.128 87.3441 25.744C86.7721 26.624 86.0241 27.768 85.1001 29.176C84.1761 30.54 83.3401 31.926 82.5921 33.334C81.8881 34.742 81.5361 35.952 81.5361 36.964C81.5361 37.888 81.7341 38.526 82.1301 38.878C82.5701 39.23 83.0761 39.406 83.6481 39.406C84.2201 39.406 84.8801 39.252 85.6281 38.944C86.3761 38.636 87.0361 38.328 87.6081 38.02C89.2361 37.052 90.7541 35.842 92.1621 34.39C93.5701 32.938 94.7801 31.706 95.7921 30.694C95.9241 30.562 96.0561 30.496 96.1881 30.496C96.4081 30.496 96.5181 30.672 96.5181 31.024C96.5181 31.332 96.3861 31.662 96.1221 32.014C95.2421 33.026 94.0541 34.214 92.5581 35.578C91.1061 36.898 89.6101 38.064 88.0701 39.076C87.2341 39.604 86.3321 40.044 85.3641 40.396C84.3961 40.792 83.4281 40.99 82.4601 40.99ZM99.2561 40.396C97.4961 40.396 96.1981 39.934 95.3621 39.01C94.5261 38.086 94.1081 36.788 94.1081 35.116C94.1081 33.576 94.4601 31.882 95.1641 30.034C95.8681 28.142 96.6381 26.58 97.4741 25.348C97.0781 25.392 96.6601 25.458 96.2201 25.546C95.8241 25.59 95.4061 25.612 94.9661 25.612C94.2621 25.612 93.6241 25.502 93.0521 25.282C92.5241 25.018 92.2601 24.534 92.2601 23.83C92.2601 23.478 92.4141 23.236 92.7221 23.104C93.0301 22.972 93.3381 22.928 93.6461 22.972L98.5961 23.236C99.1241 22.312 99.7621 21.234 100.51 20.002C101.302 18.726 102.16 17.494 103.084 16.306C104.052 15.118 105.086 14.15 106.186 13.402C107.286 12.61 108.43 12.214 109.618 12.214C109.882 12.214 110.234 12.258 110.674 12.346C111.158 12.39 111.466 12.61 111.598 13.006C111.642 13.094 111.664 13.204 111.664 13.336C111.664 13.6 111.554 13.842 111.334 14.062C111.114 14.238 110.894 14.436 110.674 14.656C109.222 16.064 107.858 17.45 106.582 18.814C105.35 20.178 104.14 21.696 102.952 23.368C103.832 23.412 104.69 23.434 105.526 23.434C106.406 23.39 107.264 23.368 108.1 23.368C108.54 23.368 108.958 23.412 109.354 23.5C109.794 23.588 110.036 23.808 110.08 24.16C110.08 24.424 109.728 24.622 109.024 24.754C108.32 24.886 107.484 24.996 106.516 25.084C105.548 25.128 104.624 25.172 103.744 25.216C102.864 25.216 102.27 25.216 101.962 25.216C101.434 26.008 100.84 27.02 100.18 28.252C99.5641 29.484 99.0141 30.738 98.5301 32.014C98.0901 33.29 97.8701 34.412 97.8701 35.38C97.8701 37.536 98.7941 38.614 100.642 38.614C101.918 38.614 103.172 38.328 104.404 37.756C105.636 37.184 106.802 36.48 107.902 35.644C109.046 34.808 110.036 33.994 110.872 33.202C111.708 32.41 112.324 31.816 112.72 31.42C112.896 31.244 113.05 31.156 113.182 31.156C113.358 31.156 113.446 31.288 113.446 31.552C113.446 31.992 113.314 32.344 113.05 32.608C111.774 33.884 110.388 35.138 108.892 36.37C107.396 37.558 105.834 38.526 104.206 39.274C102.622 40.022 100.972 40.396 99.2561 40.396ZM138.019 40.99C136.655 40.99 135.599 40.55 134.851 39.67C134.103 38.79 133.729 37.668 133.729 36.304C133.729 35.688 133.817 35.028 133.993 34.324C134.169 33.576 134.455 32.828 134.851 32.08C134.411 32.564 133.861 33.202 133.201 33.994C132.541 34.786 131.815 35.578 131.023 36.37C130.275 37.162 129.483 37.822 128.647 38.35C127.855 38.878 127.107 39.142 126.403 39.142C125.171 39.142 124.335 38.724 123.895 37.888C123.499 37.052 123.301 36.106 123.301 35.05C123.301 34.346 123.455 33.488 123.763 32.476C124.115 31.464 124.577 30.474 125.149 29.506C125.721 28.538 126.381 27.746 127.129 27.13C127.877 26.47 128.669 26.14 129.505 26.14C129.813 26.14 130.165 26.206 130.561 26.338C131.001 26.47 131.221 26.712 131.221 27.064C131.221 27.24 131.001 27.636 130.561 28.252C130.165 28.824 129.681 29.484 129.109 30.232C128.581 30.98 128.097 31.75 127.657 32.542C127.261 33.29 127.063 33.972 127.063 34.588C127.063 34.984 127.107 35.38 127.195 35.776C127.327 36.128 127.635 36.304 128.119 36.304C128.999 36.304 129.879 35.886 130.759 35.05C131.683 34.17 132.607 33.092 133.531 31.816C134.455 30.54 135.335 29.286 136.171 28.054C137.051 26.778 137.843 25.722 138.547 24.886C139.295 24.006 139.933 23.566 140.461 23.566C141.077 23.566 141.627 23.786 142.111 24.226C142.639 24.622 142.903 25.128 142.903 25.744C142.331 26.624 141.583 27.768 140.659 29.176C139.735 30.54 138.899 31.926 138.151 33.334C137.447 34.742 137.095 35.952 137.095 36.964C137.095 37.888 137.293 38.526 137.689 38.878C138.129 39.23 138.635 39.406 139.207 39.406C139.779 39.406 140.439 39.252 141.187 38.944C141.935 38.636 142.595 38.328 143.167 38.02C144.795 37.052 146.313 35.842 147.721 34.39C149.129 32.938 150.339 31.706 151.351 30.694C151.483 30.562 151.615 30.496 151.747 30.496C151.967 30.496 152.077 30.672 152.077 31.024C152.077 31.332 151.945 31.662 151.681 32.014C150.801 33.026 149.613 34.214 148.117 35.578C146.665 36.898 145.169 38.064 143.629 39.076C142.793 39.604 141.891 40.044 140.923 40.396C139.955 40.792 138.987 40.99 138.019 40.99ZM156.333 41.584C154.925 41.584 153.385 41.276 151.713 40.66C150.085 40.044 148.677 39.142 147.489 37.954C146.345 36.766 145.773 35.336 145.773 33.664C145.773 33.092 145.883 32.564 146.103 32.08C146.367 31.596 146.851 31.354 147.555 31.354C147.863 31.354 148.237 31.486 148.677 31.75C149.117 31.97 149.447 32.19 149.667 32.41C150.679 31.486 151.713 30.342 152.769 28.978C153.825 27.57 154.903 26.162 156.003 24.754C157.147 23.346 158.313 22.136 159.501 21.124C160.733 20.068 162.031 19.43 163.395 19.21C163.527 19.166 163.769 19.144 164.121 19.144C165.001 19.144 165.837 19.342 166.629 19.738C167.465 20.134 167.773 20.772 167.553 21.652C167.465 22.048 167.047 22.268 166.299 22.312C165.595 22.356 164.781 22.378 163.857 22.378C162.977 22.378 162.207 22.532 161.547 22.84C160.887 23.148 160.557 23.786 160.557 24.754C160.557 25.106 160.755 25.656 161.151 26.404C161.547 27.152 161.987 28.032 162.471 29.044C162.955 30.012 163.351 31.046 163.659 32.146C163.967 33.246 164.055 34.324 163.923 35.38C164.407 35.424 165.133 35.358 166.101 35.182C167.113 34.962 168.213 34.566 169.401 33.994C170.633 33.378 171.777 32.498 172.833 31.354C172.965 31.222 173.097 31.156 173.229 31.156C173.449 31.156 173.603 31.266 173.691 31.486C173.779 31.706 173.757 31.904 173.625 32.08C173.185 32.652 172.591 33.29 171.843 33.994C171.139 34.698 170.281 35.292 169.269 35.776C168.081 36.348 166.959 36.744 165.903 36.964C164.847 37.14 164.121 37.206 163.725 37.162C163.285 38.702 162.317 39.824 160.821 40.528C159.325 41.232 157.829 41.584 156.333 41.584ZM160.293 35.314V35.116C160.293 34.324 160.095 33.356 159.699 32.212C159.303 31.068 158.885 29.902 158.445 28.714C158.005 27.482 157.697 26.404 157.521 25.48C156.465 26.844 155.387 28.142 154.287 29.374C153.231 30.606 152.087 31.838 150.855 33.07C152.395 33.642 153.935 34.148 155.475 34.588C157.059 34.984 158.665 35.226 160.293 35.314ZM155.937 39.67C156.685 39.67 157.455 39.45 158.247 39.01C159.039 38.57 159.721 37.866 160.293 36.898C158.533 36.854 156.685 36.656 154.749 36.304C152.813 35.908 151.075 35.27 149.535 34.39C149.623 36.326 150.261 37.69 151.449 38.482C152.681 39.274 154.177 39.67 155.937 39.67Z" fill="#AC3DEB"/>
</svg>
