<svg width="20" height="20" viewBox="0 0 20 20" fill="none" xmlns="http://www.w3.org/2000/svg">
<path d="M18.3337 11.6667V10C18.3337 9.30081 18.3337 8.6794 18.3229 8.12501H1.67774C1.66699 8.6794 1.66699 9.30081 1.66699 10V11.6667C1.66699 14.8094 1.66699 16.3807 2.6433 17.357C3.61961 18.3333 5.19096 18.3333 8.33366 18.3333H11.667C14.8097 18.3333 16.381 18.3333 17.3573 17.357C18.3337 16.3807 18.3337 14.8094 18.3337 11.6667Z" fill="#AC3DEB"/>
<path d="M6.45866 2.08334C6.45866 1.73817 6.17884 1.45834 5.83366 1.45834C5.48848 1.45834 5.20866 1.73817 5.20866 2.08334V3.39939C4.00922 3.49544 3.2218 3.73116 2.6433 4.30965C2.0648 4.88815 1.82909 5.67557 1.73304 6.87501H18.2676C18.1716 5.67557 17.9358 4.88815 17.3573 4.30965C16.7788 3.73116 15.9914 3.49544 14.792 3.39939V2.08334C14.792 1.73817 14.5122 1.45834 14.167 1.45834C13.8218 1.45834 13.542 1.73817 13.542 2.08334V3.3441C12.9876 3.33334 12.3662 3.33334 11.667 3.33334H8.33366C7.63446 3.33334 7.01305 3.33334 6.45866 3.3441V2.08334Z" fill="#AC3DEB"/>
</svg>
