<svg width="301" height="38" viewBox="0 0 301 38" fill="none" xmlns="http://www.w3.org/2000/svg">
<path d="M0 19C0 9.05888 8.05888 1 18 1H72C81.9411 1 90 9.05888 90 19C90 28.9411 81.9411 37 72 37H18C8.05887 37 0 28.9411 0 19Z" fill="white"/>
<path d="M24.8671 18.688V20.676C24.8671 21.0587 24.9604 21.334 25.1471 21.502C25.3337 21.6607 25.6277 21.74 26.0291 21.74H26.1691L26.2531 22.384L26.1691 23H26.0291C25.5531 23 25.1657 22.8693 24.8671 22.608V22.636C24.8671 23.896 24.5497 24.8573 23.9151 25.52C23.2804 26.192 22.3657 26.528 21.1711 26.528H20.2891V25.268H21.1711C22.1044 25.268 22.7717 25.0673 23.1731 24.666C23.5744 24.2647 23.7751 23.588 23.7751 22.636V18.688H24.8671ZM23.5371 15.328H24.9371V16.728H23.5371V15.328ZM29.7536 18.688V20.676C29.7536 21.0587 29.8469 21.334 30.0336 21.502C30.2203 21.6607 30.5143 21.74 30.9156 21.74H31.4336L31.5036 22.384L31.4336 23H30.9156C30.6169 23 30.3043 22.9253 29.9776 22.776C29.6509 22.6267 29.3756 22.4027 29.1516 22.104C28.9276 22.3933 28.6429 22.6173 28.2976 22.776C27.9523 22.9253 27.6023 23 27.2476 23H26.0296V21.74H27.2476C27.7236 21.74 28.0783 21.642 28.3116 21.446C28.5449 21.25 28.6616 20.9373 28.6616 20.508V18.688H29.7536ZM27.0096 25.128H28.4096V26.528H27.0096V25.128ZM31.2933 21.74H32.1473C32.5953 21.74 32.9126 21.642 33.0993 21.446C33.2953 21.25 33.3933 20.9373 33.3933 20.508V18.688H34.4853V20.676C34.4853 21.0493 34.5739 21.32 34.7513 21.488C34.9379 21.6467 35.2226 21.7307 35.6053 21.74C36.0533 21.7307 36.3706 21.6327 36.5573 21.446C36.7533 21.25 36.8513 20.9373 36.8513 20.508V18.688H37.9433V20.676C37.9433 21.0493 38.0319 21.32 38.2093 21.488C38.3959 21.6467 38.6806 21.7307 39.0633 21.74C39.4553 21.7307 39.7446 21.642 39.9313 21.474C40.1179 21.306 40.2113 21.0727 40.2113 20.774C40.2113 20.5313 40.1646 20.1533 40.0713 19.64C39.9873 19.1173 39.8893 18.618 39.7773 18.142L40.8413 17.862C40.9533 18.338 41.0559 18.8607 41.1493 19.43C41.2519 19.9993 41.3033 20.4427 41.3033 20.76C41.3033 21.1333 41.2146 21.4927 41.0373 21.838C40.8693 22.1833 40.6126 22.4633 40.2673 22.678C39.9313 22.8927 39.5299 23 39.0633 23C38.7646 23 38.4566 22.93 38.1393 22.79C37.8313 22.6407 37.5653 22.412 37.3413 22.104C36.8839 22.7013 36.3053 23 35.6053 23C35.2973 23 34.9846 22.9207 34.6673 22.762C34.3499 22.594 34.0886 22.3747 33.8833 22.104C33.6593 22.4027 33.3979 22.6267 33.0993 22.776C32.8006 22.9253 32.4833 23 32.1473 23H31.2933V21.74Z" fill="#100E0C"/>
<rect x="50" y="9" width="20" height="20" rx="6" fill="#00B94D"/>
<path d="M106 19C106 9.05888 114.059 1 124 1H176C185.941 1 194 9.05888 194 19C194 28.9411 185.941 37 176 37H124C114.059 37 106 28.9411 106 19Z" fill="white"/>
<path d="M120.894 19.374C120.334 20.578 120.054 21.5813 120.054 22.384C120.054 23.2333 120.264 23.924 120.684 24.456C121.113 24.9973 121.738 25.268 122.56 25.268H124.072C124.781 25.268 125.355 25.1607 125.794 24.946C126.232 24.7313 126.452 24.4607 126.452 24.134C126.452 23.8633 126.284 23.6347 125.948 23.448C125.416 23.1493 124.515 23 123.246 23V21.74H127.894L127.964 22.37L127.894 23H127.124C127.264 23.112 127.371 23.2613 127.446 23.448C127.52 23.6347 127.558 23.84 127.558 24.064C127.558 24.4653 127.441 24.8527 127.208 25.226C126.974 25.5993 126.596 25.9073 126.074 26.15C125.56 26.402 124.893 26.528 124.072 26.528H122.56C121.822 26.528 121.178 26.3367 120.628 25.954C120.086 25.5713 119.671 25.0627 119.382 24.428C119.102 23.8027 118.962 23.1307 118.962 22.412C118.962 21.4133 119.27 20.2233 119.886 18.842L120.894 19.374ZM135.98 23C135.514 23 135.089 22.888 134.706 22.664C134.324 22.44 134.067 22.0993 133.936 21.642C133.171 22.0807 132.438 22.4167 131.738 22.65C131.038 22.8833 130.268 23 129.428 23H127.692V21.74H129.428C130.072 21.74 130.67 21.6607 131.22 21.502C131.78 21.334 132.28 21.1333 132.718 20.9C133.166 20.6667 133.778 20.3167 134.552 19.85C133.46 19.3927 132.625 19.0567 132.046 18.842C131.477 18.6273 131.08 18.52 130.856 18.52C130.576 18.52 130.357 18.5853 130.198 18.716C130.049 18.8373 129.904 19.0893 129.764 19.472L128.7 19.136C129.13 17.8853 129.848 17.26 130.856 17.26C131.174 17.26 131.659 17.3813 132.312 17.624C132.975 17.8667 133.894 18.2353 135.07 18.73L135.756 19.01L136.036 20.34L134.776 21.124C134.963 21.5347 135.364 21.74 135.98 21.74H137.366L137.464 22.37L137.366 23H135.98ZM131.682 24.75H133.082V26.15H131.682V24.75ZM137.223 21.74H138.763C139.164 21.74 139.463 21.656 139.659 21.488C139.855 21.3107 139.953 21.0727 139.953 20.774C139.953 20.5313 139.906 20.1533 139.813 19.64C139.729 19.1173 139.631 18.618 139.519 18.142L140.583 17.862C140.695 18.338 140.798 18.8607 140.891 19.43C140.994 19.9993 141.045 20.4427 141.045 20.76C141.045 21.1427 140.956 21.5067 140.779 21.852C140.602 22.1973 140.34 22.4773 139.995 22.692C139.65 22.8973 139.239 23 138.763 23H137.223V21.74ZM138.735 14.81H140.135V16.21H138.735V14.81ZM145.057 18.688V22.636C145.057 23.896 144.739 24.8573 144.105 25.52C143.47 26.192 142.555 26.528 141.361 26.528H140.479V25.268H141.361C142.294 25.268 142.961 25.0673 143.363 24.666C143.764 24.2647 143.965 23.588 143.965 22.636V18.688H145.057ZM149.412 23C148.488 23 147.848 22.7527 147.494 22.258C147.139 21.754 146.962 21.0167 146.962 20.046L146.948 13.914H148.04L148.054 20.046C148.054 20.55 148.082 20.914 148.138 21.138C148.203 21.362 148.324 21.5207 148.502 21.614C148.688 21.698 148.992 21.74 149.412 21.74H149.622L149.692 22.384L149.622 23H149.412ZM149.487 21.74H151.027C151.428 21.74 151.727 21.656 151.923 21.488C152.119 21.3107 152.217 21.0727 152.217 20.774C152.217 20.5313 152.17 20.1533 152.077 19.64C151.993 19.1173 151.895 18.618 151.783 18.142L152.847 17.862C152.959 18.338 153.061 18.8607 153.155 19.43C153.257 19.9993 153.309 20.4427 153.309 20.76C153.309 21.1427 153.22 21.5067 153.043 21.852C152.865 22.1973 152.604 22.4773 152.259 22.692C151.913 22.8973 151.503 23 151.027 23H149.487V21.74ZM150.999 14.81H152.399V16.21H150.999V14.81Z" fill="#100E0C"/>
<rect x="162" y="9" width="20" height="20" rx="6" fill="#F55611"/>
<path d="M210 19C210 9.05888 218.059 1 228 1H282C291.941 1 300 9.05888 300 19C300 28.9411 291.941 37 282 37H228C218.059 37 210 28.9411 210 19Z" fill="white"/>
<path d="M210 19C210 9.05888 218.059 1 228 1H282C291.941 1 300 9.05888 300 19C300 28.9411 291.941 37 282 37H228C218.059 37 210 28.9411 210 19Z" stroke="#AC3DEB"/>
<path d="M235.89 26.528C235.152 26.528 234.508 26.3367 233.958 25.954C233.416 25.5713 233.001 25.0627 232.712 24.428C232.432 23.8027 232.292 23.1307 232.292 22.412C232.292 21.4133 232.6 20.2233 233.216 18.842L234.224 19.374C233.664 20.578 233.384 21.5813 233.384 22.384C233.384 23.2333 233.594 23.924 234.014 24.456C234.443 24.9973 235.068 25.268 235.89 25.268H237.402C238.111 25.268 238.685 25.1607 239.124 24.946C239.562 24.7313 239.782 24.4607 239.782 24.134C239.782 23.8633 239.614 23.6347 239.278 23.448C238.746 23.1493 237.845 23 236.576 23V21.74H242.232L242.316 22.398L242.232 23H240.454C240.594 23.112 240.701 23.2613 240.776 23.448C240.85 23.6347 240.888 23.84 240.888 24.064C240.888 24.4653 240.771 24.8527 240.538 25.226C240.304 25.5993 239.926 25.9073 239.404 26.15C238.89 26.402 238.223 26.528 237.402 26.528H235.89ZM242.09 21.74H243.63C244.031 21.74 244.33 21.656 244.526 21.488C244.722 21.3107 244.82 21.0727 244.82 20.774C244.82 20.5313 244.773 20.1533 244.68 19.64C244.596 19.1173 244.498 18.618 244.386 18.142L245.45 17.862C245.562 18.338 245.665 18.8607 245.758 19.43C245.861 19.9993 245.912 20.4427 245.912 20.76C245.912 21.1427 245.823 21.5067 245.646 21.852C245.469 22.1973 245.207 22.4773 244.862 22.692C244.517 22.8973 244.106 23 243.63 23H242.09V21.74ZM243.112 25.128H244.512V26.528H243.112V25.128ZM248.032 14.894H249.236V23H248.032V14.894ZM245.694 14.642C245.806 14.11 246.053 13.6807 246.436 13.354C246.818 13.0273 247.332 12.864 247.976 12.864H250.706V13.914H247.976C247.593 13.914 247.294 14.0073 247.08 14.194C246.865 14.3713 246.706 14.6187 246.604 14.936L245.694 14.642Z" fill="#100E0C"/>
<rect x="258.5" y="9" width="20" height="20" rx="6" fill="#00B3C3"/>
</svg>
