<svg width="40" height="40" viewBox="0 0 40 40" fill="none" xmlns="http://www.w3.org/2000/svg">
<rect width="40" height="40" rx="20" fill="#FBF0E0"/>
<path d="M21.4421 13.3418L22.9087 16.2751C23.1087 16.6835 23.6421 17.0751 24.0921 17.1501L26.7504 17.5918C28.4504 17.8751 28.8504 19.1085 27.6254 20.3251L25.5587 22.3918C25.2087 22.7418 25.0171 23.4168 25.1254 23.9001L25.7171 26.4585C26.1837 28.4835 25.1087 29.2668 23.3171 28.2085L20.8254 26.7335C20.3754 26.4668 19.6337 26.4668 19.1754 26.7335L16.6837 28.2085C14.9004 29.2668 13.8171 28.4751 14.2837 26.4585L14.8754 23.9001C14.9837 23.4168 14.7921 22.7418 14.4421 22.3918L12.3754 20.3251C11.1587 19.1085 11.5504 17.8751 13.2504 17.5918L15.9087 17.1501C16.3504 17.0751 16.8837 16.6835 17.0837 16.2751L18.5504 13.3418C19.3504 11.7501 20.6504 11.7501 21.4421 13.3418Z" fill="#FF9F0E"/>
</svg>
