<svg width="54" height="54" viewBox="0 0 54 54" fill="none" xmlns="http://www.w3.org/2000/svg">
<rect width="54" height="54" rx="27" fill="#AC3DEB"/>
<path fill-rule="evenodd" clip-rule="evenodd" d="M24.8401 20.0625C24.4807 20.9684 24.1882 22.0688 23.9905 23.3042C24.9469 23.2165 25.9574 23.1699 27 23.1699C28.0427 23.1699 29.0531 23.2165 30.0095 23.3042C29.8119 22.0688 29.5193 20.9684 29.1599 20.0625C28.8144 19.1918 28.4221 18.5386 28.0253 18.1156C27.63 17.6942 27.2833 17.5527 27 17.5527C26.7168 17.5527 26.37 17.6942 25.9748 18.1156C25.5779 18.5386 25.1856 19.1918 24.8401 20.0625ZM23.4292 19.4936C22.9808 20.6239 22.6367 21.9855 22.4258 23.4908C21.3876 23.6451 20.4401 23.8511 19.6184 24.0996C18.6622 24.3888 17.8331 24.7484 17.2261 25.1824C17.1494 25.2373 17.0737 25.2952 17 25.3563C17.6701 21.1809 20.8511 17.8536 24.9309 17C24.9107 17.0208 24.8906 17.0418 24.8707 17.063C24.2979 17.6736 23.8171 18.516 23.4292 19.4936ZM29.0691 17C29.0894 17.0208 29.1094 17.0418 29.1293 17.063C29.7021 17.6736 30.183 18.516 30.5708 19.4936C31.0193 20.6239 31.3634 21.9855 31.5743 23.4908C32.6125 23.6451 33.5599 23.8511 34.3817 24.0996C35.3378 24.3888 36.1669 24.7484 36.774 25.1824C36.8506 25.2373 36.9263 25.2953 37 25.3564C36.33 21.1809 33.1489 17.8536 29.0691 17ZM37 28.6433C36.9264 28.7045 36.8507 28.7624 36.774 28.8173C36.1669 29.2514 35.3378 29.6109 34.3817 29.9001C33.5599 30.1486 32.6125 30.3546 31.5743 30.509C31.3634 32.0142 31.0193 33.3758 30.5708 34.5062C30.183 35.4837 29.7021 36.3262 29.1293 36.9368C29.1093 36.9581 29.0892 36.9792 29.0688 37C33.1488 36.1465 36.3301 32.8191 37 28.6433ZM24.9312 37C24.9109 36.9792 24.8907 36.9581 24.8707 36.9368C24.2979 36.3262 23.8171 35.4837 23.4292 34.5062C22.9808 33.3758 22.6367 32.0142 22.4258 30.509C21.3876 30.3546 20.4401 30.1486 19.6184 29.9001C18.6622 29.6109 17.8331 29.2514 17.2261 28.8173C17.1494 28.7624 17.0737 28.7045 17 28.6433C17.67 32.8191 20.8512 36.1465 24.9312 37ZM20.055 28.4327C20.6995 28.6276 21.441 28.7966 22.2583 28.9322C22.2121 28.304 22.188 27.6581 22.188 26.9999C22.188 26.3416 22.2121 25.6957 22.2583 25.0675C21.441 25.2031 20.6995 25.3721 20.055 25.567C19.1779 25.8323 18.5234 26.133 18.1052 26.432C17.6672 26.7452 17.6293 26.9482 17.6293 26.9999C17.6293 27.0515 17.6672 27.2545 18.1052 27.5677C18.5234 27.8668 19.1779 28.1674 20.055 28.4327ZM23.7076 26.9999C23.7076 27.7365 23.7395 28.4518 23.7994 29.1379C24.7983 29.2411 25.8749 29.2978 27 29.2978C28.1252 29.2978 29.2018 29.2411 30.2007 29.1379C30.2606 28.4518 30.2924 27.7365 30.2924 26.9999C30.2924 26.2633 30.2606 25.5479 30.2007 24.8619C29.2018 24.7586 28.1252 24.7019 27 24.7019C25.8749 24.7019 24.7983 24.7586 23.7994 24.8619C23.7395 25.5479 23.7076 26.2633 23.7076 26.9999ZM24.8401 33.9372C24.4807 33.0313 24.1882 31.9309 23.9905 30.6956C24.9469 30.7832 25.9574 30.8298 27 30.8298C28.0427 30.8298 29.0531 30.7832 30.0095 30.6956C29.8119 31.9309 29.5193 33.0313 29.1599 33.9372C28.8144 34.8079 28.4221 35.4611 28.0253 35.8841C27.63 36.3055 27.2833 36.4471 27 36.4471C26.7168 36.4471 26.37 36.3055 25.9748 35.8841C25.5779 35.4611 25.1856 34.8079 24.8401 33.9372ZM33.945 28.4327C33.3005 28.6276 32.559 28.7966 31.7417 28.9322C31.788 28.304 31.812 27.6581 31.812 26.9999C31.812 26.3416 31.788 25.6957 31.7417 25.0675C32.559 25.2031 33.3005 25.3721 33.945 25.567C34.8221 25.8323 35.4766 26.133 35.8948 26.432C36.3328 26.7452 36.3707 26.9482 36.3707 26.9999C36.3707 27.0515 36.3328 27.2545 35.8948 27.5677C35.4766 27.8668 34.8221 28.1674 33.945 28.4327Z" fill="white"/>
</svg>
