<svg width="28" height="29" viewBox="0 0 28 29" fill="none" xmlns="http://www.w3.org/2000/svg">
<path fill-rule="evenodd" clip-rule="evenodd" d="M8.16671 2.94189C4.94505 2.94189 2.33337 5.55357 2.33337 8.77523V20.4419C2.33337 23.6636 4.94505 26.2752 8.16671 26.2752H19.8334C23.055 26.2752 25.6667 23.6636 25.6667 20.4419V8.77523C25.6667 5.55357 23.055 2.94189 19.8334 2.94189H8.16671ZM21 8.77531C21.6443 8.77531 22.1667 8.25297 22.1667 7.60864C22.1667 6.96431 21.6443 6.44198 21 6.44198C20.3557 6.44198 19.8333 6.96431 19.8333 7.60864C19.8333 8.25297 20.3557 8.77531 21 8.77531ZM19.8333 14.6086C19.8333 17.8303 17.2217 20.442 14 20.442C10.7783 20.442 8.16667 17.8303 8.16667 14.6086C8.16667 11.387 10.7783 8.77531 14 8.77531C17.2217 8.77531 19.8333 11.387 19.8333 14.6086ZM14 18.1086C15.933 18.1086 17.5 16.5416 17.5 14.6086C17.5 12.6756 15.933 11.1086 14 11.1086C12.067 11.1086 10.5 12.6756 10.5 14.6086C10.5 16.5416 12.067 18.1086 14 18.1086Z" fill="url(#paint0_linear_296_1643)"/>
<defs>
<linearGradient id="paint0_linear_296_1643" x1="14" y1="2.94189" x2="14" y2="26.2752" gradientUnits="userSpaceOnUse">
<stop stop-color="white"/>
<stop offset="1" stop-color="#AC3DEB"/>
</linearGradient>
</defs>
</svg>
