<svg width="23" height="25" viewBox="0 0 23 25" fill="none" xmlns="http://www.w3.org/2000/svg">
<path fill-rule="evenodd" clip-rule="evenodd" d="M5.00008 3.27523C5.00008 4.56389 3.95541 5.60856 2.66675 5.60856C1.37808 5.60856 0.333415 4.56389 0.333415 3.27523C0.333415 1.98656 1.37808 0.941895 2.66675 0.941895C3.95541 0.941895 5.00008 1.98656 5.00008 3.27523ZM0.333374 8.52531H5.00004V24.2753H0.333374V8.52531ZM8.50004 8.52531H13.1667V9.50696C13.8965 9.249 14.6819 9.10864 15.5 9.10864C19.366 9.10864 22.5 12.2427 22.5 16.1086V24.2753H17.8334V16.1086C17.8334 14.82 16.7887 13.7753 15.5 13.7753C14.2114 13.7753 13.1667 14.82 13.1667 16.1086V24.2753H8.50004V16.1086V8.52531Z" fill="url(#paint0_linear_296_1652)"/>
<defs>
<linearGradient id="paint0_linear_296_1652" x1="11.4167" y1="0.941895" x2="11.4167" y2="24.2752" gradientUnits="userSpaceOnUse">
<stop stop-color="white"/>
<stop offset="1" stop-color="#AC3DEB"/>
</linearGradient>
</defs>
</svg>
