<svg width="20" height="20" viewBox="0 0 20 20" fill="none" xmlns="http://www.w3.org/2000/svg">
<path d="M14.1667 5.83334L5.83337 5.83334" stroke="#8E8E8E" stroke-width="1.5" stroke-linecap="round" stroke-linejoin="round"/>
<path d="M14.1667 9.16666L5.83337 9.16666" stroke="#8E8E8E" stroke-width="1.5" stroke-linecap="round" stroke-linejoin="round"/>
<path d="M10 12.5L5.83337 12.5" stroke="#8E8E8E" stroke-width="1.5" stroke-linecap="round" stroke-linejoin="round"/>
<path d="M15.8333 1.66666H4.16667C3.24619 1.66666 2.5 2.41285 2.5 3.33332V15.9619C2.5 17.1163 3.6451 17.9211 4.7312 17.5301L6.03267 17.0616C6.43934 16.9152 6.88699 16.9325 7.28115 17.1098L9.31606 18.0255C9.75101 18.2213 10.249 18.2213 10.6839 18.0255L12.7189 17.1098C13.113 16.9325 13.5607 16.9152 13.9673 17.0616L15.2688 17.5301C16.3549 17.9211 17.5 17.1163 17.5 15.9619V3.33332C17.5 2.41285 16.7538 1.66666 15.8333 1.66666Z" stroke="#8E8E8E" stroke-width="1.5" stroke-linecap="round"/>
</svg>
