<svg width="20" height="20" viewBox="0 0 20 20" fill="none" xmlns="http://www.w3.org/2000/svg">
<path d="M14.1666 13.3333V17.1024C14.1666 17.692 13.5712 18.0951 13.0238 17.8762L10.3095 16.7904C10.1108 16.7109 9.88916 16.7109 9.69049 16.7904L6.97614 17.8762C6.42875 18.0951 5.83331 17.692 5.83331 17.1024V13.3333" stroke="#8E8E8E" stroke-width="1.5" stroke-linejoin="round"/>
<path d="M8.8269 2.0987C9.50287 1.52264 10.4971 1.52264 11.1731 2.0987L11.7691 2.60668C12.0588 2.85353 12.419 3.00272 12.7983 3.03299L13.579 3.09529C14.4644 3.16594 15.1674 3.86895 15.238 4.75427L15.3003 5.53496C15.3306 5.91434 15.4798 6.2745 15.7266 6.56416L16.2346 7.16025C16.8107 7.83622 16.8107 8.83043 16.2346 9.5064L15.7266 10.1025C15.4798 10.3921 15.3306 10.7523 15.3003 11.1317L15.238 11.9124C15.1674 12.7977 14.4643 13.5007 13.579 13.5714L12.7983 13.6337C12.419 13.6639 12.0588 13.8131 11.7691 14.06L11.1731 14.5679C10.4971 15.144 9.50287 15.144 8.8269 14.5679L8.23082 14.06C7.94115 13.8131 7.58099 13.6639 7.20161 13.6337L6.42092 13.5714C5.53561 13.5007 4.83259 12.7977 4.76195 11.9124L4.69965 11.1317C4.66937 10.7523 4.52019 10.3921 4.27333 10.1025L3.76536 9.5064C3.1893 8.83043 3.1893 7.83622 3.76536 7.16025L4.27334 6.56416C4.52019 6.2745 4.66937 5.91434 4.69965 5.53496L4.76195 4.75427C4.83259 3.86895 5.53561 3.16594 6.42092 3.09529L7.20161 3.03299C7.58099 3.00272 7.94115 2.85353 8.23082 2.60668L8.8269 2.0987Z" stroke="#8E8E8E" stroke-width="1.5"/>
</svg>
