<svg width="20" height="20" viewBox="0 0 20 20" fill="none" xmlns="http://www.w3.org/2000/svg">
<g clip-path="url(#clip0_1_35)">
<path d="M16.6666 10V15C16.6666 16.8409 15.1743 18.3333 13.3333 18.3333H6.66665C4.8257 18.3333 3.33331 16.8409 3.33331 15V10" stroke="#8E8E8E" stroke-width="1.5"/>
<path d="M13.9739 1.66666H6.02604C4.51158 1.66666 3.14969 2.70395 2.58723 4.28586L1.95558 6.06238C1.76438 6.60015 1.63221 7.17561 1.77167 7.72905C2.10196 9.03979 3.17352 9.99999 4.44443 9.99999C5.97856 9.99999 7.22221 8.60088 7.22221 6.87499C7.22221 8.60088 8.46586 9.99999 9.99999 9.99999C11.5341 9.99999 12.7778 8.60088 12.7778 6.87499C12.7778 8.60088 14.0214 9.99999 15.5555 9.99999C16.8265 9.99999 17.898 9.03979 18.2283 7.72905C18.3678 7.17561 18.2356 6.60015 18.0444 6.06238L17.4127 4.28586C16.8503 2.70395 15.4884 1.66666 13.9739 1.66666Z" stroke="#8E8E8E" stroke-width="1.5" stroke-linejoin="round"/>
<path d="M7.5 14.1667C9.46345 15.2836 10.5396 15.2719 12.5 14.1667" stroke="#8E8E8E" stroke-width="1.5" stroke-linecap="round" stroke-linejoin="round"/>
</g>
<defs>
<clipPath id="clip0_1_35">
<rect width="20" height="20" fill="white"/>
</clipPath>
</defs>
</svg>
