<svg width="25" height="33" viewBox="0 0 25 33" fill="none" xmlns="http://www.w3.org/2000/svg">
<path d="M8.4193 29.9604C7.73419 29.6952 7.24685 29.2349 6.95728 28.5795C6.69134 27.9332 6.69099 27.2675 6.95623 26.5824C7.21233 25.9209 7.66352 25.4572 8.30979 25.1912C8.96521 24.9017 9.62366 24.8849 10.2852 25.141C10.9466 25.3971 11.4222 25.8529 11.7117 26.5083C12.0104 27.1401 12.0318 27.7867 11.7757 28.4482C11.5104 29.1333 11.0501 29.6207 10.3947 29.9102C9.76287 30.209 9.10442 30.2257 8.4193 29.9604ZM8.17345 7.8611C8.6582 6.60899 9.41807 5.55848 10.453 4.70955C11.5208 3.84614 12.7143 3.28949 14.0335 3.03958C15.3763 2.79882 16.6738 2.92082 17.9259 3.40558C19.2252 3.90862 20.262 4.70393 21.0362 5.79148C21.8105 6.87903 22.2688 8.11594 22.4113 9.5022C22.5865 10.874 22.418 12.2214 21.9058 13.5443L19.0674 12.7714C19.3182 12.0536 19.4108 11.288 19.3453 10.4749C19.3034 9.67086 19.0505 8.92094 18.5864 8.22512C18.1459 7.53845 17.5004 7.03048 16.6499 6.70121C15.516 6.26219 14.4083 6.28157 13.3268 6.75935C12.2545 7.21351 11.5034 7.99577 11.0736 9.10613C10.8357 9.72037 10.729 10.2767 10.7534 10.7751C10.8105 11.259 10.9667 11.7678 11.222 12.3012C11.4864 12.8111 11.9757 13.6525 12.6897 14.8254L13.4155 16.0029C13.9284 16.8534 14.1421 17.6696 14.0567 18.4515C13.9713 19.2334 13.6405 20.3685 13.0643 21.8569L12.5567 23.1681L9.86348 22.1254L10.6043 20.2118C10.7873 19.7393 10.8475 19.2329 10.785 18.6926C10.7226 18.1522 10.4585 17.4659 9.99292 16.6337C9.14325 15.1095 8.55458 13.9987 8.22691 13.3013C7.90839 12.5804 7.70647 11.7687 7.62116 10.8664C7.55948 9.97323 7.74357 8.97145 8.17345 7.8611Z" fill="#DE3DEB"/>
</svg>
