<svg width="64" height="90" viewBox="0 0 64 90" fill="none" xmlns="http://www.w3.org/2000/svg">
<g clip-path="url(#clip0_296_1632)">
<path d="M58.3291 0.807129H5.67087C2.65078 0.807129 0.202515 3.2086 0.202515 6.17097V84.046C0.202515 87.0083 2.65078 89.4098 5.67087 89.4098H58.3291C61.3492 89.4098 63.7975 87.0083 63.7975 84.046V6.17097C63.7975 3.2086 61.3492 0.807129 58.3291 0.807129Z" fill="#1D1DD5"/>
<path d="M58.3291 0.807129H5.67087C2.65078 0.807129 0.202515 3.2086 0.202515 6.17097V84.046C0.202515 87.0083 2.65078 89.4098 5.67087 89.4098H58.3291C61.3492 89.4098 63.7975 87.0083 63.7975 84.046V6.17097C63.7975 3.2086 61.3492 0.807129 58.3291 0.807129Z" stroke="#E0E0FF"/>
<path d="M43.0982 20.4397L33.0396 30.306C32.0905 31.237 32.0905 32.7464 33.0396 33.6774L38.1147 38.6555C39.0639 39.5865 40.6027 39.5865 41.5518 38.6555L51.6104 28.7892C52.5595 27.8582 52.5595 26.3488 51.6104 25.4178L46.5353 20.4397C45.5861 19.5087 44.0473 19.5087 43.0982 20.4397Z" fill="#F5F5F5"/>
<path d="M20.9018 38.5125L30.9604 28.6461C31.9095 27.7152 31.9095 26.2057 30.9604 25.2748L25.8853 20.2966C24.9361 19.3656 23.3973 19.3656 22.4482 20.2966L12.3896 30.163C11.4405 31.0939 11.4405 32.6034 12.3896 33.5343L17.4647 38.5125C18.4139 39.4435 19.9527 39.4435 20.9018 38.5125Z" fill="#F5F5F5"/>
<path d="M35.7127 14.4344L31.9588 18.1166C31.0097 19.0475 31.0097 20.557 31.9588 21.4879L33.2833 22.7872C34.2325 23.7182 35.7713 23.7182 36.7204 22.7872L40.4744 19.105C41.4235 18.174 41.4235 16.6646 40.4744 15.7336L39.1498 14.4344C38.2007 13.5034 36.6618 13.5034 35.7127 14.4344Z" fill="#F5F5F5"/>
<path d="M28.2873 44.5178L32.0412 40.8356C32.9903 39.9046 32.9903 38.3952 32.0412 37.4642L30.7167 36.165C29.7675 35.234 28.2287 35.234 27.2796 36.165L23.5256 39.8472C22.5765 40.7781 22.5765 42.2876 23.5256 43.2185L24.8502 44.5178C25.7993 45.4488 27.3382 45.4488 28.2873 44.5178Z" fill="#F5F5F5"/>
<path d="M26.1009 64.2241C26.0923 64.6647 26.0274 65.0799 25.9065 65.4701C25.7941 65.8515 25.617 66.1948 25.3751 66.4999C25.1417 66.8051 24.8479 67.0677 24.4936 67.2882C24.0356 67.5763 23.4696 67.8095 22.7956 67.9875C22.1302 68.1655 21.4389 68.2545 20.7217 68.2545C19.5464 68.2545 18.6564 67.9875 18.0515 67.4535C17.4466 66.9279 17.1442 66.1479 17.1442 65.1141C17.1442 64.1391 17.3904 62.8509 17.883 61.2489L19.3088 61.6431C19.1446 62.2446 19.0237 62.7492 18.9459 63.1561C18.8767 63.5629 18.8422 63.9146 18.8422 64.2114C18.8422 64.7708 19.0323 65.2071 19.4125 65.5209C19.7927 65.8344 20.3587 65.9914 21.1105 65.9914C21.5253 65.9914 21.9401 65.9532 22.3549 65.8769C22.7697 65.809 23.1542 65.7073 23.5085 65.5718C23.8628 65.4359 24.1523 65.2794 24.377 65.1014C24.4375 65.0505 24.485 64.9782 24.5196 64.8852C24.5541 64.7919 24.5671 64.6818 24.5584 64.5547C24.4979 62.5204 24.4504 61.0113 24.4159 60.0284C24.3899 59.0367 24.3467 57.5531 24.2862 55.5784L26.1917 55.4131L26.1009 64.2241ZM30.9136 65.4955C30.3087 65.4955 29.7902 65.3938 29.3581 65.1904C28.926 64.9782 28.5934 64.652 28.36 64.2114C28.1267 63.7703 27.9971 63.2069 27.9712 62.5204C27.8934 60.2064 27.8156 57.8924 27.7379 55.5784L29.6433 55.4131C29.6347 56.6674 29.626 57.6039 29.6174 58.2229C29.6174 58.8332 29.613 59.7487 29.6044 60.9692V61.3125C29.5958 61.9737 29.7124 62.4568 29.9544 62.7619C30.1963 63.0671 30.5895 63.2197 31.1339 63.2197L30.9136 65.4955ZM38.9164 65.4955C38.2856 65.4955 37.7887 65.3894 37.4258 65.1777C37.0715 64.9655 36.8468 64.6476 36.7517 64.2241L36.8295 64.2368C36.674 64.5249 36.4579 64.7581 36.1814 64.9361C35.9135 65.1053 35.4988 65.2412 34.9371 65.3429C34.3754 65.4447 33.6193 65.4955 32.6687 65.4955H30.9188C30.8756 65.4955 30.8367 65.4149 30.8022 65.2539C30.759 65.0843 30.7374 64.8471 30.7374 64.5419C30.7374 64.2026 30.759 63.9356 30.8022 63.7409C30.8454 63.5459 30.9015 63.4104 30.9707 63.3341C31.0312 63.2578 31.0873 63.2197 31.1392 63.2197H32.8891C33.8223 63.2197 34.5352 63.1644 35.0278 63.0544C35.5203 62.9356 35.853 62.7747 36.0259 62.5712C36.2073 62.3678 36.2981 62.1135 36.2981 61.8084V60.8675L37.7887 60.7531V61.7575C37.7887 62.2744 37.8967 62.6475 38.1128 62.8764C38.3288 63.1052 38.6745 63.2197 39.1497 63.2197L38.9164 65.4955ZM34.4186 68.4325C33.9865 68.4325 33.6624 68.4325 33.4464 68.4325C33.239 68.4325 32.9236 68.4325 32.5002 68.4325V66.6907C32.9323 66.6907 33.252 66.6907 33.4594 66.6907C33.6754 66.6907 33.9952 66.6907 34.4186 66.6907V68.4325ZM42.3534 59.6597C42.4571 60.1937 42.5437 60.7189 42.6126 61.2362C42.6904 61.7448 42.7293 62.1644 42.7293 62.4949C42.7293 62.8339 42.6734 63.1815 42.5608 63.5375C42.4486 63.8848 42.28 64.2026 42.0552 64.4911C41.8308 64.7708 41.5586 64.9826 41.2386 65.1268C40.945 65.2623 40.5994 65.3596 40.2018 65.4192C39.8129 65.4701 39.3895 65.4955 38.9315 65.4955C38.8883 65.4955 38.8494 65.4149 38.8148 65.2539C38.7716 65.0843 38.75 64.8471 38.75 64.5419C38.75 64.2026 38.7716 63.9356 38.8148 63.7409C38.858 63.5459 38.9142 63.4104 38.9833 63.3341C39.0438 63.2578 39.1 63.2197 39.1518 63.2197C39.8086 63.2197 40.2882 63.1815 40.5905 63.1052C40.8931 63.0202 41.0442 62.9101 41.0442 62.7747C41.0442 62.605 40.9968 62.2744 40.9016 61.7829C40.8068 61.2911 40.6902 60.7531 40.5516 60.1682L42.3534 59.6597ZM36.5465 66.6907C37.0304 66.6907 37.389 66.6907 37.6223 66.6907C37.8556 66.6907 38.2056 66.6907 38.6722 66.6907V68.2291C38.1883 68.2291 37.8297 68.2291 37.5964 68.2291C37.3631 68.2291 37.0131 68.2291 36.5465 68.2291V66.6907ZM40.6683 68.2291C40.1845 68.2291 39.8259 68.2291 39.5926 68.2291C39.3593 68.2291 39.0092 68.2291 38.5426 68.2291V66.6907C39.0265 66.6907 39.3852 66.6907 39.6185 66.6907C39.8518 66.6907 40.2018 66.6907 40.6683 66.6907V68.2291ZM46.4145 60.6259C46.7082 62.1346 46.8552 63.4398 46.8552 64.5419C46.8552 65.3386 46.7167 66.0208 46.4405 66.5889C46.1638 67.1567 45.7057 67.6399 45.0665 68.0384C44.4354 68.4365 43.5799 68.7714 42.5 69.0428C42.3355 68.6105 42.2104 68.2927 42.1241 68.0892C42.0463 67.8858 41.9297 67.5763 41.7741 67.1611C42.6815 66.9322 43.3855 66.7034 43.8869 66.4745C44.3965 66.2457 44.7465 66.0168 44.9369 65.7879C45.1268 65.5591 45.222 65.3131 45.222 65.0505C45.222 64.6266 45.1657 64.0755 45.0535 63.3977C44.9498 62.7111 44.7983 61.9737 44.5998 61.1854L46.4145 60.6259ZM46.4534 59.2274C46.0212 59.2274 45.6972 59.2274 45.4813 59.2274C45.2739 59.2274 44.9583 59.2274 44.535 59.2274V57.4728C44.9668 57.4728 45.2868 57.4728 45.4942 57.4728C45.7101 57.4728 46.0297 57.4728 46.4534 57.4728V59.2274Z" fill="#F5F5F5"/>
<path d="M20.6757 77.2006C20.6757 77.3675 20.6568 77.5213 20.619 77.6623C20.5812 77.803 20.5226 77.9273 20.4432 78.035C20.3676 78.1462 20.2731 78.2464 20.1597 78.3354C19.9593 78.4871 19.6909 78.6151 19.3544 78.7192C19.0217 78.8265 18.6777 78.8805 18.3223 78.8805C17.8195 78.8805 17.4395 78.7728 17.1824 78.5579C16.9292 78.3465 16.8025 78.0421 16.8025 77.6456C16.8025 77.2598 16.9008 76.7389 17.0974 76.0825L17.5454 76.2105C17.4736 76.4664 17.4187 76.696 17.3809 76.9002C17.3469 77.1041 17.3299 77.2709 17.3299 77.4009C17.3299 77.6603 17.4263 77.8641 17.6191 78.0127C17.8119 78.1609 18.0841 78.2352 18.4357 78.2352C18.6625 78.2352 18.8913 78.2074 19.1219 78.1518C19.3525 78.0998 19.5566 78.031 19.7343 77.946C19.9158 77.8606 20.0462 77.7751 20.1256 77.6901C20.1483 77.6603 20.1634 77.6234 20.171 77.5789C20.1823 77.5304 20.188 77.4767 20.188 77.4175C20.1729 76.5347 20.1597 75.8803 20.1483 75.454C20.1407 75.0237 20.1275 74.382 20.1086 73.5294L20.6927 73.4849L20.6757 77.2006ZM22.7398 77.8125C22.4903 77.8125 22.2823 77.7696 22.116 77.6846C21.9497 77.5991 21.8249 77.4712 21.7418 77.3007C21.6586 77.1263 21.6113 76.9058 21.6 76.6388C21.5735 75.6002 21.547 74.564 21.5206 73.5294L22.1047 73.4849C22.1009 74.0856 22.099 74.5322 22.099 74.8254C22.099 75.1183 22.099 75.5557 22.099 76.1382V76.3329C22.0952 76.607 22.1519 76.8148 22.2691 76.9559C22.3863 77.0965 22.5678 77.1672 22.8135 77.1672L22.7398 77.8125ZM26.2661 77.8125C25.786 77.8125 25.4023 77.7751 25.115 77.7012C24.8314 77.6234 24.5951 77.4768 24.4061 77.2618L24.2813 77.2451C24.1679 77.1339 24.0375 76.9837 23.89 76.7946C23.7426 76.6015 23.6008 76.4012 23.4647 76.1938L23.9694 76.0937C24.1017 76.2677 24.2341 76.4274 24.3664 76.5721C24.4987 76.7167 24.6159 76.8335 24.718 76.9225C24.9373 77.0151 25.1754 77.0798 25.4325 77.1172C25.6934 77.1506 25.9939 77.1672 26.3342 77.1672L26.2661 77.8125ZM24.7123 75.4985C25.1206 75.4985 25.4363 75.539 25.6594 75.6209C25.8824 75.7023 25.9939 75.8136 25.9939 75.9546C25.9939 75.9991 25.9864 76.0619 25.9713 76.1437C25.9561 76.2216 25.9391 76.29 25.9202 76.3496C25.837 76.4608 25.6726 76.6221 25.4269 76.8335C25.1811 77.0449 24.9807 77.2042 24.8257 77.3119L24.718 77.2674C24.4269 77.4748 24.1206 77.6178 23.7993 77.6957C23.4817 77.7736 23.1301 77.8125 22.7445 77.8125C22.7256 77.8125 22.7105 77.7902 22.6992 77.7457C22.684 77.7012 22.6765 77.6401 22.6765 77.5622C22.6765 77.4768 22.684 77.4044 22.6992 77.3452C22.7143 77.2856 22.7332 77.2411 22.7559 77.2117C22.7747 77.1819 22.7937 77.1672 22.8126 77.1672C23.1415 77.1672 23.4288 77.143 23.6746 77.0949C23.9203 77.0465 24.149 76.9686 24.3607 76.8613L24.5876 76.9058C24.701 76.8351 24.8503 76.7278 25.0356 76.5832C25.2208 76.4386 25.3588 76.3217 25.4495 76.2327V76.1549C25.3626 76.1215 25.2435 76.0972 25.0923 76.0825C24.9448 76.0639 24.7822 76.0547 24.6046 76.0547C24.4155 76.0547 24.1887 76.0786 23.9241 76.1271C23.6594 76.1716 23.4458 76.2327 23.2833 76.3106L23.1472 75.8489C23.3097 75.7488 23.5403 75.6654 23.839 75.5986C24.1377 75.5319 24.4288 75.4985 24.7123 75.4985ZM27.6163 74.6919C27.8394 74.6919 28.0284 74.7698 28.1834 74.9256C28.3384 75.0813 28.4556 75.2982 28.535 75.5764C28.6144 75.8505 28.6541 76.1716 28.6541 76.5387C28.6541 76.6944 28.6314 76.8482 28.5861 77.0004C28.5445 77.1486 28.4783 77.2801 28.3876 77.3953C28.3006 77.5101 28.1948 77.5936 28.07 77.6456C27.9301 77.7048 27.7392 77.7473 27.4973 77.7736C27.2553 77.7994 26.9831 77.8125 26.6806 77.8125H26.2667C26.2478 77.8125 26.2326 77.7902 26.2213 77.7457C26.2062 77.7012 26.1986 77.6401 26.1986 77.5622C26.1986 77.4768 26.2062 77.4044 26.2213 77.3452C26.2364 77.2856 26.2553 77.2411 26.278 77.2117C26.2969 77.1819 26.3158 77.1672 26.3347 77.1672H26.8167C27.1078 77.1672 27.363 77.1577 27.5823 77.1394C27.8016 77.1172 27.9698 77.0818 28.087 77.0337C28.1248 77.0151 28.1532 76.9873 28.1721 76.9503C28.191 76.9094 28.2004 76.8538 28.2004 76.7834C28.2004 76.4497 28.1721 76.1676 28.1154 75.9379C28.0587 75.7079 27.9793 75.5354 27.8772 75.4206C27.7789 75.3054 27.6617 75.2482 27.5256 75.2482C27.4462 75.2482 27.3725 75.274 27.3044 75.3261C27.2402 75.3741 27.1891 75.4409 27.1513 75.5263C27.1135 75.6078 27.0946 75.6968 27.0946 75.7933C27.0946 75.8859 27.1286 75.9602 27.1967 76.0158C27.2685 76.0675 27.3687 76.0937 27.4973 76.0937C27.6334 76.0937 27.7619 76.0881 27.8829 76.077C28.0038 76.0619 28.1381 76.0396 28.2855 76.0102V76.5387C28.1569 76.5756 28.0133 76.607 27.8545 76.6332C27.6957 76.6555 27.5445 76.6666 27.4008 76.6666C27.1513 76.6666 26.9623 76.609 26.8338 76.4942C26.709 76.3754 26.6466 76.216 26.6466 76.0158C26.6466 75.7933 26.6882 75.5799 26.7714 75.3761C26.8545 75.1683 26.9699 75.0034 27.1173 74.8811C27.2647 74.7547 27.4311 74.6919 27.6163 74.6919ZM27.9169 74.1134C27.7619 74.1134 27.6447 74.1134 27.5653 74.1134C27.4897 74.1134 27.3763 74.1134 27.2251 74.1134V73.4849C27.38 73.4849 27.4953 73.4849 27.571 73.4849C27.6504 73.4849 27.7657 73.4849 27.9169 73.4849V74.1134ZM31.1886 75.0424C31.3889 75.2053 31.5628 75.3539 31.7103 75.4874C31.8577 75.6169 31.9843 75.7377 32.0902 75.8489C32.215 75.9785 32.3133 76.0992 32.3851 76.2105C32.4607 76.3217 32.5136 76.4274 32.5439 76.5276C32.5779 76.6237 32.5949 76.7258 32.5949 76.8335C32.5949 76.9706 32.5684 77.0965 32.5155 77.2117C32.4626 77.3266 32.3908 77.4267 32.3001 77.5121C32.2131 77.5936 32.1091 77.6623 31.9882 77.7179C31.8974 77.7585 31.7991 77.7902 31.6933 77.8125C31.5874 77.8308 31.4796 77.8403 31.37 77.8403C31.094 77.8403 30.888 77.7751 30.7519 77.6456C30.6158 77.5121 30.5477 77.3377 30.5477 77.1227C30.5477 76.9559 30.595 76.7612 30.6895 76.5387C30.784 76.3162 30.9371 76.0639 31.1489 75.7822L31.4891 76.038C31.3417 76.2196 31.2301 76.3809 31.1545 76.522C31.0789 76.6591 31.0411 76.7667 31.0411 76.8446C31.0411 76.9372 31.077 77.0151 31.1489 77.0782C31.2207 77.141 31.3284 77.1728 31.4721 77.1728C31.6422 77.1728 31.7934 77.1506 31.9258 77.1061C32.0581 77.0576 32.1243 77.0059 32.1243 76.9503C32.1243 76.8871 32.1034 76.8184 32.0619 76.7445C32.024 76.6702 31.9503 76.5756 31.8407 76.4608C31.7537 76.3607 31.6271 76.2383 31.4608 76.0937C31.2982 75.9451 31.0978 75.7691 30.8596 75.5652L31.1886 75.0424ZM36.4787 77.8125C36.2934 77.8125 36.1347 77.7902 36.0023 77.7457C35.87 77.7012 35.7585 77.6325 35.6677 77.5399C35.577 77.447 35.509 77.3285 35.4636 77.1839L35.5316 77.1784C35.4333 77.3154 35.301 77.4398 35.1347 77.5511C34.9721 77.6583 34.7925 77.7438 34.5959 77.8069C34.3994 77.8661 34.2103 77.8959 34.0289 77.8959C33.8096 77.8959 33.6432 77.8363 33.5298 77.7179C33.4164 77.5956 33.3597 77.4156 33.3597 77.1784C33.3597 77.1041 33.3597 77.0393 33.3597 76.9837C33.3597 76.9241 33.3616 76.8482 33.3654 76.7556L33.802 76.7278V76.8669C33.802 77.0039 33.8304 77.1021 33.8871 77.1617C33.9438 77.2209 34.0421 77.2507 34.182 77.2507C34.3824 77.2507 34.5865 77.2006 34.7944 77.1005C35.0023 77.0004 35.1857 76.8669 35.3445 76.7L35.3162 76.8502C35.2519 76.5645 35.182 76.2864 35.1063 76.0158C35.0307 75.7412 34.9324 75.4353 34.8114 75.098L35.3162 74.8588C35.3766 75.0404 35.4315 75.2239 35.4806 75.4095C35.5297 75.5911 35.5789 75.7838 35.628 75.988C35.6583 76.1064 35.6867 76.2252 35.7131 76.344C35.7622 76.5665 35.8228 76.7369 35.8946 76.8557C35.9664 76.9741 36.0534 77.056 36.1554 77.1005C36.2575 77.145 36.388 77.1672 36.5467 77.1672L36.4787 77.8125ZM37.8113 75.6654C37.8491 75.8545 37.8851 76.0659 37.9191 76.2995C37.9531 76.5291 37.9701 76.7016 37.9701 76.8168C37.9701 76.9241 37.9512 77.0337 37.9134 77.145C37.8756 77.2562 37.8208 77.358 37.749 77.4509C37.6771 77.5399 37.5902 77.6083 37.4881 77.6567C37.3671 77.7159 37.2178 77.7569 37.0401 77.7791C36.8662 77.8014 36.6791 77.8125 36.4787 77.8125C36.4598 77.8125 36.4447 77.7902 36.4333 77.7457C36.4182 77.7012 36.4106 77.6401 36.4106 77.5622C36.4106 77.4768 36.4182 77.4044 36.4333 77.3452C36.4484 77.2856 36.4673 77.2411 36.49 77.2117C36.5089 77.1819 36.5278 77.1672 36.5467 77.1672C36.8719 77.1672 37.1044 77.1506 37.2443 77.1172C37.3879 77.0798 37.4597 77.0318 37.4597 76.9726C37.4597 76.8724 37.4408 76.7091 37.403 76.4831C37.369 76.2566 37.3199 76.0361 37.2556 75.8211L37.8113 75.6654ZM37.7603 75.1536C37.6053 75.1536 37.4881 75.1536 37.4087 75.1536C37.3331 75.1536 37.2197 75.1536 37.0685 75.1536V74.525C37.2235 74.525 37.3388 74.525 37.4144 74.525C37.4938 74.525 37.6091 74.525 37.7603 74.525V75.1536ZM40.3222 77.8125C40.1407 77.8125 39.9933 77.7918 39.8798 77.7513C39.7702 77.7104 39.6946 77.6472 39.653 77.5622L39.7551 77.3619C39.7551 77.5658 39.7211 77.7585 39.653 77.9404C39.585 78.122 39.481 78.2889 39.3411 78.4411C39.205 78.5968 39.0292 78.7303 38.8137 78.8415C38.6171 78.9417 38.3846 79.0323 38.1162 79.1141C37.8478 79.1956 37.5472 79.2659 37.2145 79.3255C37.173 79.1991 37.1427 79.103 37.1238 79.0362C37.1011 78.9731 37.0709 78.8805 37.0331 78.7581C37.6304 78.654 38.0916 78.5356 38.4167 78.4021C38.7457 78.2686 38.9668 78.1311 39.0802 77.9905C39.1975 77.853 39.256 77.7104 39.256 77.5622C39.256 77.4398 39.2334 77.2467 39.188 76.9837C39.1426 76.7167 39.0859 76.4533 39.0179 76.1938L39.5679 76.0158C39.6246 76.3607 39.6795 76.611 39.7324 76.7667C39.7891 76.9185 39.8647 77.0242 39.9592 77.0838C40.0575 77.1394 40.2012 77.1672 40.3902 77.1672L40.3222 77.8125ZM41.6547 75.6654C41.6924 75.8545 41.7285 76.0659 41.7625 76.2995C41.7965 76.5291 41.8135 76.7016 41.8135 76.8168C41.8135 76.9241 41.7945 77.0337 41.7568 77.145C41.7191 77.2562 41.6641 77.358 41.5924 77.4509C41.5207 77.5399 41.4336 77.6083 41.3315 77.6567C41.2104 77.7159 41.0613 77.7569 40.8835 77.7791C40.7097 77.8014 40.5227 77.8125 40.3222 77.8125C40.3032 77.8125 40.288 77.7902 40.2767 77.7457C40.2616 77.7012 40.254 77.6401 40.254 77.5622C40.254 77.4768 40.2616 77.4044 40.2767 77.3452C40.2918 77.2856 40.3107 77.2411 40.3334 77.2117C40.3523 77.1819 40.3713 77.1672 40.3902 77.1672C40.7155 77.1672 40.9479 77.1506 41.0877 77.1172C41.2315 77.0798 41.3032 77.0318 41.3032 76.9726C41.3032 76.8724 41.2841 76.7091 41.2464 76.4831C41.2124 76.2566 41.1634 76.0361 41.099 75.8211L41.6547 75.6654ZM39.9648 78.4299C40.1462 78.4299 40.2804 78.4299 40.3674 78.4299C40.4544 78.4299 40.5866 78.4299 40.7644 78.4299V78.9528C40.5829 78.9528 40.4487 78.9528 40.3617 78.9528C40.271 78.9528 40.1387 78.9528 39.9648 78.9528V78.4299ZM41.5073 78.9528C41.3258 78.9528 41.1918 78.9528 41.1047 78.9528C41.0176 78.9528 40.8855 78.9528 40.7077 78.9528V78.4299C40.8892 78.4299 41.0233 78.4299 41.1103 78.4299C41.2011 78.4299 41.3335 78.4299 41.5073 78.4299V78.9528ZM45.705 77.8125C45.5199 77.8125 45.3611 77.7902 45.2286 77.7457C45.0962 77.7012 44.9848 77.6325 44.894 77.5399C44.8033 77.447 44.7353 77.3285 44.6899 77.1839L44.7579 77.1784C44.6595 77.3154 44.5275 77.4398 44.361 77.5511C44.1985 77.6583 44.0187 77.7438 43.8222 77.8069C43.6258 77.8661 43.4366 77.8959 43.2552 77.8959C43.036 77.8959 42.8695 77.8363 42.7561 77.7179C42.6427 77.5956 42.586 77.4156 42.586 77.1784C42.586 77.1041 42.586 77.0393 42.586 76.9837C42.586 76.9241 42.588 76.8482 42.5917 76.7556L43.0283 76.7278V76.8669C43.0283 77.0039 43.0567 77.1021 43.1134 77.1617C43.1701 77.2209 43.2685 77.2507 43.4083 77.2507C43.6088 77.2507 43.8129 77.2006 44.0207 77.1005C44.2285 77.0004 44.412 76.8669 44.5708 76.7L44.5424 76.8502C44.478 76.5645 44.4084 76.2864 44.3326 76.0158C44.2569 75.7412 44.1588 75.4353 44.0377 75.098L44.5424 74.8588C44.6028 75.0404 44.6579 75.2239 44.7069 75.4095C44.7559 75.5911 44.8053 75.7838 44.8543 75.988C44.8847 76.1064 44.9131 76.2252 44.9394 76.344C44.9884 76.5665 45.0492 76.7369 45.1209 76.8557C45.1926 76.9741 45.2797 77.056 45.3817 77.1005C45.4838 77.145 45.6142 77.1672 45.773 77.1672L45.705 77.8125ZM44.5651 74.3637C44.41 74.3637 44.2929 74.3637 44.2135 74.3637C44.1378 74.3637 44.0244 74.3637 43.8733 74.3637V73.7352C44.0284 73.7352 44.1435 73.7352 44.2192 73.7352C44.2986 73.7352 44.414 73.7352 44.5651 73.7352V74.3637ZM47.0376 75.6654C47.0753 75.8545 47.1114 76.0659 47.1454 76.2995C47.1794 76.5291 47.1964 76.7016 47.1964 76.8168C47.1964 76.9241 47.1774 77.0337 47.1397 77.145C47.102 77.2562 47.0469 77.358 46.9753 77.4509C46.9036 77.5399 46.8165 77.6083 46.7144 77.6567C46.5933 77.7159 46.4442 77.7569 46.2664 77.7791C46.0926 77.8014 45.9055 77.8125 45.705 77.8125C45.6859 77.8125 45.6709 77.7902 45.6596 77.7457C45.6446 77.7012 45.6369 77.6401 45.6369 77.5622C45.6369 77.4768 45.6446 77.4044 45.6596 77.3452C45.6746 77.2856 45.6936 77.2411 45.7163 77.2117C45.7353 77.1819 45.754 77.1672 45.773 77.1672C46.0983 77.1672 46.3308 77.1506 46.4705 77.1172C46.6143 77.0798 46.686 77.0318 46.686 76.9726C46.686 76.8724 46.667 76.7091 46.6293 76.4831C46.5953 76.2566 46.5463 76.0361 46.4819 75.8211L47.0376 75.6654ZM45.3477 78.4299C45.5292 78.4299 45.6632 78.4299 45.7503 78.4299C45.8374 78.4299 45.9695 78.4299 46.1473 78.4299V78.9528C45.9658 78.9528 45.8318 78.9528 45.7447 78.9528C45.6539 78.9528 45.5215 78.9528 45.3477 78.9528V78.4299ZM46.8902 78.9528C46.7087 78.9528 46.5746 78.9528 46.4876 78.9528C46.4005 78.9528 46.2684 78.9528 46.0906 78.9528V78.4299C46.2721 78.4299 46.4061 78.4299 46.4932 78.4299C46.584 78.4299 46.7164 78.4299 46.8902 78.4299V78.9528ZM46.4365 79.7482C46.2927 79.7482 46.185 79.7482 46.1133 79.7482C46.0452 79.7482 45.9411 79.7482 45.8014 79.7482V79.2087C45.9452 79.2087 46.0509 79.2087 46.1189 79.2087C46.1906 79.2087 46.2968 79.2087 46.4365 79.2087V79.7482Z" fill="#B6B6CF"/>
</g>
<defs>
<clipPath id="clip0_296_1632">
<rect width="64" height="89" fill="white" transform="translate(0 0.608398)"/>
</clipPath>
</defs>
</svg>
