<svg width="63" height="89" viewBox="0 0 63 89" fill="none" xmlns="http://www.w3.org/2000/svg">
<g clip-path="url(#clip0_296_1605)">
<mask id="mask0_296_1605" style="mask-type:luminance" maskUnits="userSpaceOnUse" x="0" y="0" width="63" height="89">
<path d="M63 0.608398H0V88.6084H63V0.608398Z" fill="white"/>
</mask>
<g mask="url(#mask0_296_1605)">
<mask id="mask1_296_1605" style="mask-type:luminance" maskUnits="userSpaceOnUse" x="0" y="0" width="63" height="89">
<path d="M56.7 0.608398H6.3C2.82061 0.608398 0 3.3895 0 6.82018V82.3965C0 85.8274 2.82061 88.6084 6.3 88.6084H56.7C60.1794 88.6084 63 85.8274 63 82.3965V6.82018C63 3.3895 60.1794 0.608398 56.7 0.608398Z" fill="white"/>
</mask>
<g mask="url(#mask1_296_1605)">
<path d="M56.7 0.608398H6.3C2.82061 0.608398 0 3.3895 0 6.82018V82.3965C0 85.8274 2.82061 88.6084 6.3 88.6084H56.7C60.1794 88.6084 63 85.8274 63 82.3965V6.82018C63 3.3895 60.1794 0.608398 56.7 0.608398Z" fill="url(#paint0_linear_296_1605)"/>
<path d="M55.2722 91.7142C58.6929 90.0646 61.9789 88.1557 65.1002 86.0044V84.7363C61.2408 87.4537 57.1207 89.7908 52.7984 91.7142H55.2722ZM64.5467 91.7142C64.7313 91.6003 64.9163 91.4844 65.1002 91.3673V91.7142H64.5467ZM30.5382 91.7142C43.4437 90.4189 55.2973 85.5346 65.1002 78.0699V76.7554C53.6393 85.6999 39.249 91.0236 23.625 91.0236C14.792 91.0326 6.04603 89.3028 -2.09998 85.9353V87.0573C3.90946 89.4977 10.2459 91.0664 16.7118 91.7142H30.5382Z" fill="#FFCE00"/>
<path d="M-2.09998 79.8134C5.75822 83.2701 14.4638 85.192 23.625 85.192C39.4958 85.192 53.9994 79.4252 65.1002 69.9004V68.5195C54.0983 78.2427 39.5619 84.1564 23.625 84.1564C14.4501 84.1564 5.73932 82.1969 -2.09998 78.6776V79.8134Z" fill="#FFCE00"/>
<path d="M-2.09998 73.7371C5.64379 77.551 14.3798 79.6972 23.625 79.6972C39.9105 79.6972 54.6178 73.0382 65.1002 62.3313V60.8247C54.7658 71.7968 40.0094 78.6628 23.625 78.6628C14.3619 78.6628 5.61751 76.4683 -2.09998 72.5762V73.7371Z" fill="#FFCE00"/>
<path d="M-2.09998 65.922C5.44007 70.3114 14.2349 72.8304 23.625 72.8304C40.7726 72.8304 55.9313 64.4323 65.1002 51.58V49.7402C56.2275 63.0263 40.9648 71.7952 23.625 71.7952C14.5534 71.8094 5.65296 69.3603 -2.09998 64.7159V65.922Z" fill="#FFCE00"/>
<path d="M-2.09998 57.7118C5.36806 63.0873 14.3787 65.9775 23.625 65.963C42.9313 65.963 59.3145 53.6214 65.1002 36.5027V32.7446C60.5933 51.2081 43.7336 64.9278 23.625 64.9278C14.3373 64.9419 5.30095 61.9535 -2.09998 56.4209V57.7106V57.7118Z" fill="#FFCE00"/>
<path d="M-2.09985 50.6264C4.92141 56.9694 14.1023 60.4824 23.6252 60.469C44.6872 60.469 61.761 43.6339 61.761 22.867C61.7745 13.9529 58.5631 5.3262 52.7037 -1.4624H51.3117C57.3773 5.22897 60.7243 13.8924 60.7111 22.867C60.7111 43.0627 44.1074 59.4334 23.6252 59.4334C13.6355 59.4334 4.56765 55.5386 -2.09985 49.2058V50.6264Z" fill="#FFCE00"/>
<path d="M-2.10002 42.5551C3.85768 50.1129 13.1659 54.9745 23.625 54.9745C41.6095 54.9745 56.1888 40.5995 56.1888 22.867C56.1888 13.1415 51.8039 4.42531 44.8759 -1.4624H43.2283C50.4861 4.23068 55.1377 13.0131 55.1377 22.867C55.1377 40.0279 41.0289 53.9393 23.6239 53.9393C13.0021 53.9393 3.60778 48.7587 -2.10107 40.8199L-2.10002 42.5551Z" fill="#FFCE00"/>
<path d="M-2.09985 30.9485C1.3704 41.6959 11.5754 49.4804 23.6252 49.4804C38.532 49.4804 50.6175 37.5651 50.6175 22.867C50.6175 12.0151 44.0297 2.67981 34.584 -1.4624H31.6566C42.0515 1.87124 49.5677 11.5036 49.5677 22.867C49.5677 36.9936 37.9524 48.446 23.6252 48.446C10.4403 48.446 -0.447152 38.7474 -2.09985 26.1903V30.9485ZM-2.09985 19.5437V14.7855C-0.937946 11.2044 0.978203 7.90586 3.52306 5.10585C6.06793 2.3058 9.18408 0.0675051 12.6673 -1.4624H15.5937C6.2277 1.54098 -0.797851 9.65666 -2.09985 19.5437ZM4.02059 -1.4624C1.68624 0.368825 -0.374239 2.51581 -2.09985 4.915V3.17675C-0.767978 1.4881 0.730729 -0.0659091 2.3742 -1.4624H4.02059ZM58.4264 -1.4624H59.7075C62.0014 1.83733 63.8164 5.43703 65.1 9.23218V12.9893C63.8312 7.79633 61.5656 2.89089 58.4264 -1.4624Z" fill="#FFCE00"/>
<path fill-rule="evenodd" clip-rule="evenodd" d="M23.6249 14.1084C21.269 14.1084 19.0096 15.0312 17.3437 16.6738C15.6779 18.3163 14.7419 20.5441 14.7419 22.867C14.7419 25.1899 15.6779 27.4177 17.3437 29.0603C19.0096 30.7028 21.269 31.6256 23.6249 31.6256C25.9809 31.6256 28.2403 30.7028 29.9062 29.0603C31.5721 27.4177 32.5079 25.1899 32.5079 22.867C32.5079 20.5441 31.5721 18.3163 29.9062 16.6738C28.2403 15.0312 25.9809 14.1084 23.6249 14.1084ZM15.7919 22.867C15.7919 20.8187 16.6172 18.8542 18.0862 17.4058C19.5551 15.9574 21.5475 15.1437 23.6249 15.1437C25.7024 15.1437 27.6947 15.9574 29.1637 17.4058C30.6327 18.8542 31.458 20.8187 31.458 22.867C31.458 24.9153 30.6327 26.8798 29.1637 28.3282C27.6947 29.7766 25.7024 30.5903 23.6249 30.5903C21.5475 30.5903 19.5551 29.7766 18.0862 28.3282C16.6172 26.8798 15.7919 24.9153 15.7919 22.867Z" fill="#FFCE00"/>
<path fill-rule="evenodd" clip-rule="evenodd" d="M23.625 8.61426C15.6419 8.61426 9.16968 14.9958 9.16968 22.8672C9.16968 30.7385 15.6419 37.1201 23.625 37.1201C31.6082 37.1201 38.0804 30.7385 38.0804 22.8672C38.0804 14.9958 31.6082 8.61426 23.625 8.61426ZM10.2197 22.8672C10.2197 15.5683 16.2215 9.64955 23.625 9.64955C31.0275 9.64955 37.0304 15.5673 37.0304 22.8672C37.0304 30.166 31.0286 36.0848 23.625 36.0848C16.2225 36.0848 10.2197 30.167 10.2197 22.8672Z" fill="#FFCE00"/>
<path fill-rule="evenodd" clip-rule="evenodd" d="M23.625 1.74707C11.7946 1.74707 2.20496 11.2024 2.20496 22.8671C2.20496 34.5317 11.7946 43.9871 23.625 43.9871C35.4553 43.9871 45.045 34.5317 45.045 22.8671C45.045 11.2024 35.4553 1.74707 23.625 1.74707ZM3.25495 22.8671C3.25495 11.7749 12.3753 2.78237 23.625 2.78237C34.8746 2.78237 43.9951 11.7749 43.9951 22.8671C43.9951 33.9592 34.8746 42.952 23.625 42.952C12.3753 42.952 3.25495 33.9592 3.25495 22.8671Z" fill="#FFCE00"/>
<path d="M29.7191 14.1501C29.9128 13.6794 30.2446 13.2765 30.6722 12.9931C31.0996 12.7097 31.6033 12.5587 32.1184 12.5596H48.7034C50.5312 12.5596 51.7816 14.3675 51.1026 16.0293L38.4018 47.1121C38.2082 47.5827 37.8763 47.9854 37.4488 48.2691C37.0213 48.5523 36.5177 48.7036 36.0025 48.7028H19.4175C17.5897 48.7028 16.3394 46.8949 17.0182 45.2327L29.7191 14.1512V14.1501Z" fill="url(#paint1_linear_296_1605)"/>
<path d="M22.6962 34.2464C24.15 34.2611 25.5923 33.9916 26.9397 33.4533C28.287 32.915 29.5128 32.1186 30.5461 31.1102C31.5794 30.1019 32.3996 28.9015 32.9594 27.5786C33.5193 26.2557 33.8075 24.8364 33.8075 23.403C33.8075 21.9696 33.5193 20.5503 32.9594 19.2274C32.3996 17.9045 31.5794 16.7042 30.5461 15.6958C29.5128 14.6875 28.287 13.8911 26.9397 13.3528C25.5923 12.8145 24.15 12.5449 22.6962 12.5597C19.7992 12.589 17.0309 13.7444 14.9928 15.7748C12.9547 17.8051 11.8115 20.5464 11.8115 23.403C11.8115 26.2596 12.9547 29.0009 14.9928 31.0312C17.0309 33.0616 19.7992 34.217 22.6962 34.2464Z" fill="#0A33FF"/>
<path d="M33.4803 24.124C33.4805 25.4932 33.1885 26.8471 32.6234 28.0977C32.0583 29.3484 31.2326 30.4679 30.2001 31.3834C29.1676 32.2989 27.9513 32.9901 26.6302 33.4119C25.3091 33.8338 23.9128 33.9769 22.532 33.8319L29.6499 16.4121C30.8435 17.3239 31.8093 18.4931 32.4733 19.8301C33.1373 21.1671 33.4818 22.6353 33.4803 24.124Z" fill="url(#paint2_linear_296_1605)"/>
<path fill-rule="evenodd" clip-rule="evenodd" d="M19.8335 55.8589C20.348 55.8589 20.7669 56.2647 20.7669 56.7648V61.2941C20.7669 61.7942 21.1848 62.2 21.7004 62.2H24.4997C24.6214 62.2012 24.7421 62.1784 24.8549 62.1336C24.9678 62.0884 25.0706 62.022 25.1573 61.938C25.2442 61.8539 25.3133 61.7537 25.3608 61.6433C25.4083 61.5325 25.4332 61.4139 25.4342 61.2941V60.3881C25.4342 59.888 25.851 59.4822 26.3666 59.4822C26.8821 59.4822 27.3 59.888 27.3 60.3881V61.2941C27.3 62.7952 26.0463 64.0119 24.4997 64.0119H21.7004C20.1537 64.0119 18.9 62.7952 18.9 61.2941V56.7648C18.9 56.2647 19.3179 55.8589 19.8335 55.8589ZM21.7004 65.8233C21.7004 65.3236 22.1183 64.9178 22.6338 64.9178H25.4331C25.9487 64.9178 26.3676 65.3236 26.3676 65.8233V66.7292C26.3667 66.8495 26.3417 66.9681 26.2942 67.0785C26.2467 67.1889 26.1776 67.2891 26.0908 67.3731C26.004 67.4576 25.9013 67.524 25.7884 67.5688C25.6755 67.6136 25.5548 67.6363 25.4331 67.6352C25.3115 67.6363 25.1909 67.6136 25.0782 67.5684C24.9654 67.5236 24.8628 67.4572 24.7761 67.3727C24.6894 67.2887 24.6204 67.1885 24.573 67.0781C24.5256 66.9677 24.5006 66.8495 24.4997 66.7292H22.6338C22.5121 66.7304 22.3914 66.708 22.2785 66.6629C22.1657 66.6181 22.0629 66.5517 21.9761 66.4672C21.8893 66.3831 21.8202 66.283 21.7727 66.1726C21.7252 66.0622 21.7013 65.9435 21.7004 65.8233ZM17.0331 55.8589C17.5487 55.8589 17.9676 56.2647 17.9676 56.7648V63.0922C17.9676 65.0946 16.295 66.7292 14.2328 66.7292C12.1716 66.7292 10.5 65.0938 10.5 63.0922V61.2941C10.5 60.794 10.9179 60.3881 11.4335 60.3881C11.948 60.3881 12.3669 60.794 12.3669 61.2941V63.0922C12.3669 64.0936 13.2017 64.9178 14.2328 64.9178C15.2639 64.9178 16.0997 64.0936 16.0997 63.0922V56.7648C16.0997 56.2647 16.5165 55.8589 17.0331 55.8589ZM51.5667 58.5763C51.7509 58.5767 51.9312 58.524 52.0855 58.4242C52.2003 58.3516 52.2972 58.2541 52.3686 58.1394C52.4399 58.0247 52.4842 57.8955 52.4978 57.7611C52.5113 57.6271 52.4942 57.492 52.4471 57.3655C52.4005 57.239 52.3251 57.1247 52.227 57.0308C52.0958 56.9031 51.9292 56.8159 51.7485 56.7809C51.5675 56.746 51.3801 56.7644 51.2094 56.834C51.0396 56.9019 50.894 57.0178 50.7908 57.1675C50.6712 57.3411 50.6173 57.5505 50.6385 57.7595C50.6596 57.9685 50.7541 58.1634 50.906 58.3103C51.0826 58.4812 51.3191 58.5767 51.5667 58.5763ZM31.9673 58.5763C32.1512 58.5767 32.3311 58.5236 32.4849 58.4242C32.6001 58.3516 32.6971 58.2541 32.7686 58.1394C32.8402 58.0247 32.8845 57.8955 32.8981 57.7615C32.9117 57.6271 32.8944 57.492 32.8474 57.3655C32.8004 57.2386 32.7249 57.1243 32.6267 57.0308C32.4955 56.9031 32.329 56.8159 32.148 56.7809C31.9671 56.746 31.7796 56.7644 31.6092 56.834C31.4393 56.9019 31.2936 57.0182 31.1903 57.1675C31.0707 57.3411 31.0169 57.5509 31.0382 57.7595C31.0595 57.9685 31.1546 58.1634 31.3068 58.3103C31.4831 58.4808 31.7202 58.5767 31.9673 58.5763ZM51.5667 59.4822C51.3199 59.4822 51.0834 59.5773 50.9072 59.7474C50.8207 59.8311 50.7521 59.9305 50.7054 60.0409C50.6584 60.1509 50.6341 60.2687 50.6341 60.3881V63.672C50.6341 64.1482 50.4957 64.4652 50.339 64.6463C50.2609 64.7371 50.1624 64.8086 50.0515 64.8557C49.9407 64.9029 49.8203 64.9241 49.6998 64.9178C49.453 64.9174 49.2162 65.0125 49.0403 65.1826C48.9538 65.2662 48.8856 65.366 48.8386 65.476C48.7919 65.586 48.7676 65.7043 48.7676 65.8233C48.7676 65.9427 48.7919 66.061 48.8386 66.171C48.8856 66.281 48.9538 66.3808 49.0403 66.4645C49.2162 66.6346 49.453 66.7296 49.6998 66.7292C50.0934 66.7344 50.4829 66.6558 50.841 66.4963C51.1979 66.338 51.5153 66.1042 51.7681 65.8111C52.2649 65.2376 52.5001 64.4786 52.5001 63.672V60.3881C52.5001 60.2687 52.4758 60.1509 52.4288 60.0409C52.3821 59.9305 52.3135 59.8311 52.227 59.7474C52.0508 59.5769 51.8135 59.4818 51.5667 59.4822ZM48.7664 60.3881C48.766 60.2687 48.7421 60.1509 48.695 60.0409C48.6484 59.9305 48.5798 59.8311 48.4933 59.7474C48.3174 59.5765 48.0802 59.481 47.8334 59.481C47.5865 59.481 47.3493 59.5765 47.1735 59.7474C47.0869 59.8311 47.0184 59.9305 46.9713 60.0409C46.9246 60.1509 46.9003 60.2687 46.9003 60.3881V63.672C46.9003 64.1482 46.762 64.4652 46.6053 64.6463C46.5271 64.7371 46.429 64.8086 46.3182 64.8557C46.2077 64.9029 46.0873 64.9241 45.9669 64.9178C45.7201 64.917 45.4828 65.0121 45.3066 65.1826C45.2201 65.2662 45.1515 65.366 45.1048 65.476C45.0582 65.586 45.0339 65.7043 45.0339 65.8233C45.0339 65.9427 45.0582 66.061 45.1048 66.171C45.1515 66.281 45.2201 66.3808 45.3066 66.4645C45.4828 66.6346 45.7201 66.73 45.9669 66.7292C46.3596 66.7344 46.7492 66.6558 47.1073 66.4963C47.4641 66.338 47.7823 66.1042 48.0343 65.8111C48.5311 65.2376 48.7664 64.4786 48.7664 63.672V60.3881ZM43.1666 64.9178H40.3663C40.1199 64.9174 39.883 65.0125 39.7068 65.1826C39.6205 65.2662 39.552 65.366 39.5052 65.476C39.4584 65.586 39.4343 65.7043 39.4343 65.8233C39.4343 65.9427 39.4584 66.061 39.5052 66.171C39.552 66.281 39.6205 66.3808 39.7068 66.4645C39.883 66.6346 40.1199 66.7296 40.3663 66.7292H43.1666C43.4134 66.73 43.6506 66.6346 43.8269 66.4645C43.9134 66.3808 43.982 66.281 44.0286 66.171C44.0753 66.061 44.0996 65.9427 44.0996 65.8233C44.0996 65.7043 44.0753 65.586 44.0286 65.476C43.982 65.366 43.9134 65.2662 43.8269 65.1826C43.6506 65.0121 43.4134 64.917 43.1666 64.9178ZM45.0335 60.3881C45.0335 60.2687 45.0091 60.1509 44.9625 60.0409C44.9154 59.9305 44.8468 59.8311 44.7603 59.7474C44.5845 59.5761 44.3472 59.4802 44.1 59.4802C43.8528 59.4802 43.6156 59.5761 43.4397 59.7474C43.3532 59.8311 43.2846 59.9305 43.2376 60.0409C43.1909 60.1509 43.1666 60.2687 43.1666 60.3881V61.3852C43.1666 61.8252 42.8129 62.2 42.2331 62.2H36.6345C36.0549 62.2 35.7011 61.8252 35.7011 61.3852V60.3881C35.701 60.2687 35.6768 60.1509 35.6299 60.0409C35.5831 59.9305 35.5145 59.8311 35.4281 59.7474C35.2521 59.5765 35.0151 59.481 34.7682 59.481C34.5212 59.481 34.2842 59.5765 34.1082 59.7474C34.0218 59.8311 33.9532 59.9305 33.9063 60.0409C33.8594 60.1509 33.8353 60.2687 33.8352 60.3881V63.1059C33.8352 63.5864 33.6378 64.048 33.2882 64.3866C32.9356 64.7276 32.4612 64.9182 31.9673 64.9178C31.4727 64.9178 30.9981 64.7272 30.6474 64.3866C30.4748 64.2193 30.3376 64.0201 30.2438 63.8001C30.1501 63.5805 30.1017 63.3444 30.1014 63.1059V60.3881C30.1013 60.2687 30.0772 60.1509 30.0303 60.0409C29.9834 59.9305 29.9148 59.8311 29.8284 59.7474C29.6524 59.5761 29.4152 59.4802 29.168 59.4802C28.9208 59.4802 28.6836 59.5761 28.5075 59.7474C28.4212 59.8311 28.3525 59.9305 28.3056 60.0409C28.2587 60.1509 28.2346 60.2687 28.2345 60.3881V63.1059C28.2345 64.0036 28.5779 64.8679 29.1974 65.5346C29.8232 66.2016 30.6747 66.62 31.5916 66.7108C32.5085 66.8019 33.4274 66.5591 34.1754 66.0284C34.9182 65.502 35.435 64.7214 35.6244 63.839C35.9478 63.9525 36.2901 64.0119 36.6345 64.0119H42.2343C43.7168 64.0119 45.0346 62.9452 45.0346 61.3852L45.0335 60.3881Z" fill="#19191A"/>
</g>
<path d="M56.7 1.12598H6.30002C3.11058 1.12598 0.525024 3.67532 0.525024 6.82011V82.3965C0.525024 85.5413 3.11058 88.0906 6.30002 88.0906H56.7C59.8895 88.0906 62.4749 85.5413 62.4749 82.3965V6.82011C62.4749 3.67532 59.8895 1.12598 56.7 1.12598Z" stroke="white" stroke-opacity="0.5"/>
<path d="M20.3526 76.34C20.3526 76.505 20.334 76.6571 20.2968 76.7965C20.2596 76.9356 20.2019 77.0585 20.1237 77.165C20.0493 77.275 19.9563 77.374 19.8446 77.462C19.6474 77.6121 19.3832 77.7386 19.0519 77.8415C18.7245 77.9476 18.3858 78.001 18.036 78.001C17.541 78.001 17.167 77.8946 16.9139 77.682C16.6646 77.473 16.5399 77.1721 16.5399 76.78C16.5399 76.3986 16.6367 75.8835 16.8302 75.2345L17.2712 75.361C17.2005 75.614 17.1465 75.8411 17.1093 76.043C17.0758 76.2446 17.0591 76.4096 17.0591 76.538C17.0591 76.7946 17.154 76.9961 17.3438 77.143C17.5336 77.2895 17.8015 77.363 18.1476 77.363C18.3709 77.363 18.5961 77.3355 18.8231 77.2805C19.0501 77.2291 19.251 77.1611 19.426 77.077C19.6046 76.9925 19.733 76.9081 19.8111 76.824C19.8335 76.7946 19.8483 76.758 19.8558 76.714C19.867 76.6661 19.8725 76.613 19.8725 76.5545C19.8577 75.6816 19.8446 75.0346 19.8335 74.613C19.826 74.1876 19.813 73.5531 19.7944 72.71L20.3694 72.666L20.3526 76.34ZM22.3845 76.945C22.1389 76.945 21.9342 76.9026 21.7704 76.8185C21.6067 76.7341 21.4839 76.6076 21.402 76.439C21.3201 76.2666 21.2736 76.0485 21.2624 75.7845C21.2364 74.7576 21.2103 73.733 21.1843 72.71L21.7593 72.666C21.7555 73.26 21.7537 73.7016 21.7537 73.9915C21.7537 74.2811 21.7537 74.7136 21.7537 75.2895V75.482C21.7499 75.7531 21.8058 75.9586 21.9212 76.098C22.0365 76.2371 22.2151 76.307 22.4571 76.307L22.3845 76.945ZM25.8557 76.945C25.383 76.945 25.0053 76.9081 24.7225 76.835C24.4434 76.758 24.2108 76.613 24.0247 76.4005L23.9019 76.384C23.7903 76.274 23.6619 76.1255 23.5167 75.9385C23.3716 75.7476 23.232 75.5496 23.0981 75.3445L23.5949 75.2455C23.7251 75.4176 23.8554 75.5755 23.9856 75.7185C24.1159 75.8615 24.2313 75.977 24.3317 76.065C24.5476 76.1566 24.782 76.2206 25.0351 76.2575C25.2919 76.2905 25.5878 76.307 25.9227 76.307L25.8557 76.945ZM24.3262 74.657C24.7281 74.657 25.0388 74.6971 25.2584 74.778C25.4779 74.8586 25.5878 74.9686 25.5878 75.108C25.5878 75.152 25.5803 75.2141 25.5654 75.295C25.5505 75.372 25.5338 75.4396 25.5152 75.4985C25.4333 75.6085 25.2714 75.768 25.0295 75.977C24.7876 76.186 24.5904 76.3436 24.4378 76.45L24.3317 76.406C24.0452 76.6111 23.7437 76.7525 23.4274 76.8295C23.1148 76.9065 22.7687 76.945 22.3891 76.945C22.3705 76.945 22.3556 76.923 22.3444 76.879C22.3295 76.835 22.3221 76.7745 22.3221 76.6975C22.3221 76.6131 22.3295 76.5416 22.3444 76.483C22.3593 76.4241 22.3779 76.3801 22.4003 76.351C22.4189 76.3216 22.4375 76.307 22.4561 76.307C22.7799 76.307 23.0627 76.2831 23.3046 76.2355C23.5465 76.1876 23.7716 76.1106 23.9801 76.0045L24.2033 76.0485C24.315 75.9786 24.462 75.8725 24.6443 75.7295C24.8267 75.5865 24.9625 75.471 25.0519 75.383V75.306C24.9662 75.273 24.849 75.249 24.7002 75.2345C24.555 75.216 24.395 75.207 24.2201 75.207C24.034 75.207 23.8107 75.2306 23.5502 75.2785C23.2897 75.3225 23.0794 75.383 22.9194 75.46L22.7855 75.0035C22.9455 74.9045 23.1725 74.822 23.4665 74.756C23.7605 74.69 24.047 74.657 24.3262 74.657ZM27.1848 73.8595C27.4043 73.8595 27.5904 73.9365 27.743 74.0905C27.8956 74.2445 28.011 74.459 28.0891 74.734C28.1673 75.0051 28.2064 75.3225 28.2064 75.6855C28.2064 75.8395 28.184 75.9916 28.1394 76.142C28.0984 76.2886 28.0333 76.4186 27.944 76.5325C27.8584 76.646 27.7542 76.7286 27.6314 76.78C27.4937 76.8386 27.3057 76.8806 27.0676 76.9065C26.8294 76.9321 26.5614 76.945 26.2637 76.945H25.8562C25.8376 76.945 25.8227 76.923 25.8116 76.879C25.7967 76.835 25.7892 76.7745 25.7892 76.6975C25.7892 76.6131 25.7967 76.5416 25.8116 76.483C25.8264 76.4241 25.8451 76.3801 25.8674 76.351C25.886 76.3216 25.9046 76.307 25.9232 76.307H26.3977C26.6842 76.307 26.9354 76.2976 27.1513 76.2795C27.3671 76.2575 27.5327 76.2226 27.6481 76.175C27.6853 76.1566 27.7132 76.1291 27.7319 76.0925C27.7504 76.0521 27.7598 75.9971 27.7598 75.9275C27.7598 75.5975 27.7319 75.3186 27.676 75.0915C27.6202 74.864 27.5421 74.6936 27.4416 74.58C27.3448 74.4661 27.2295 74.4095 27.0955 74.4095C27.0173 74.4095 26.9448 74.4351 26.8778 74.4865C26.8145 74.5341 26.7643 74.6001 26.7271 74.6845C26.6898 74.7651 26.6712 74.8531 26.6712 74.9485C26.6712 75.0401 26.7047 75.1135 26.7717 75.1685C26.8424 75.2196 26.941 75.2455 27.0676 75.2455C27.2016 75.2455 27.3281 75.24 27.4472 75.229C27.5662 75.2141 27.6984 75.1921 27.8435 75.163V75.6855C27.717 75.7221 27.5756 75.7531 27.4193 75.779C27.263 75.801 27.1141 75.812 26.9727 75.812C26.7271 75.812 26.541 75.7551 26.4144 75.6415C26.2916 75.5241 26.2302 75.3665 26.2302 75.1685C26.2302 74.9485 26.2711 74.7375 26.353 74.536C26.4349 74.3305 26.5484 74.1675 26.6936 74.0465C26.8387 73.9216 27.0024 73.8595 27.1848 73.8595ZM27.4807 73.2875C27.3281 73.2875 27.2127 73.2875 27.1346 73.2875C27.0601 73.2875 26.9485 73.2875 26.7996 73.2875V72.666C26.9522 72.666 27.0657 72.666 27.1401 72.666C27.2183 72.666 27.3318 72.666 27.4807 72.666V73.2875ZM30.7012 74.206C30.8984 74.3671 31.0696 74.514 31.2148 74.646C31.3599 74.7741 31.4846 74.8935 31.5888 75.0035C31.7116 75.1316 31.8083 75.251 31.8791 75.361C31.9535 75.471 32.0056 75.5755 32.0354 75.6745C32.0689 75.7696 32.0856 75.8706 32.0856 75.977C32.0856 76.1126 32.0595 76.2371 32.0075 76.351C31.9553 76.4646 31.8846 76.5636 31.7953 76.648C31.7097 76.7286 31.6074 76.7965 31.4883 76.8515C31.399 76.8916 31.3022 76.923 31.198 76.945C31.0938 76.9631 30.9877 76.9725 30.8798 76.9725C30.6081 76.9725 30.4053 76.9081 30.2714 76.78C30.1374 76.648 30.0704 76.4756 30.0704 76.263C30.0704 76.098 30.1169 75.9055 30.21 75.6855C30.303 75.4655 30.4537 75.2161 30.6621 74.9375L30.9971 75.1905C30.8519 75.37 30.7421 75.5296 30.6677 75.669C30.5933 75.8046 30.5561 75.911 30.5561 75.988C30.5561 76.0796 30.5914 76.1566 30.6621 76.219C30.7328 76.2811 30.8389 76.3125 30.9803 76.3125C31.1478 76.3125 31.2966 76.2905 31.4269 76.2465C31.5571 76.1986 31.6223 76.1475 31.6223 76.0925C31.6223 76.0301 31.6018 75.9621 31.5609 75.889C31.5236 75.8155 31.4511 75.7221 31.3432 75.6085C31.2576 75.5095 31.1329 75.3885 30.9692 75.2455C30.8091 75.0986 30.6119 74.9246 30.3774 74.723L30.7012 74.206ZM35.9087 76.945C35.7263 76.945 35.57 76.923 35.4398 76.879C35.3095 76.835 35.1997 76.7671 35.1104 76.6755C35.0211 76.5836 34.9541 76.4665 34.9094 76.3235L34.9764 76.318C34.8797 76.4536 34.7494 76.5765 34.5857 76.6865C34.4257 76.7926 34.2489 76.8771 34.0554 76.9395C33.8618 76.9981 33.6758 77.0275 33.4971 77.0275C33.2813 77.0275 33.1175 76.9686 33.0059 76.8515C32.8942 76.7305 32.8384 76.5526 32.8384 76.318C32.8384 76.2446 32.8384 76.1805 32.8384 76.1255C32.8384 76.0666 32.8403 75.9915 32.844 75.9L33.2738 75.8725V76.01C33.2738 76.1456 33.3017 76.2426 33.3576 76.3015C33.4134 76.3601 33.5102 76.3895 33.6478 76.3895C33.8451 76.3895 34.0461 76.34 34.2507 76.241C34.4554 76.142 34.6359 76.01 34.7922 75.845L34.7643 75.9935C34.701 75.7111 34.6322 75.436 34.5578 75.1685C34.4833 74.897 34.3866 74.5946 34.2675 74.261L34.7643 74.0245C34.8238 74.2041 34.8778 74.3856 34.9262 74.569C34.9746 74.7486 35.023 74.9391 35.0713 75.141C35.1011 75.2581 35.129 75.3756 35.1551 75.493C35.2034 75.713 35.263 75.8816 35.3337 75.999C35.4044 76.1161 35.49 76.197 35.5905 76.241C35.691 76.285 35.8194 76.307 35.9757 76.307L35.9087 76.945ZM37.2205 74.822C37.2577 75.009 37.2931 75.218 37.3266 75.449C37.3601 75.6761 37.3768 75.8466 37.3768 75.9605C37.3768 76.0666 37.3582 76.175 37.321 76.285C37.2838 76.395 37.2298 76.4956 37.1591 76.5875C37.0884 76.6755 37.0028 76.7431 36.9023 76.791C36.7832 76.8496 36.6362 76.89 36.4613 76.912C36.2901 76.934 36.1059 76.945 35.9087 76.945C35.89 76.945 35.8752 76.923 35.864 76.879C35.8491 76.835 35.8417 76.7745 35.8417 76.6975C35.8417 76.6131 35.8491 76.5416 35.864 76.483C35.8789 76.4241 35.8975 76.3801 35.9198 76.351C35.9385 76.3216 35.957 76.307 35.9757 76.307C36.2957 76.307 36.5246 76.2905 36.6623 76.2575C36.8037 76.2206 36.8744 76.1731 36.8744 76.1145C36.8744 76.0155 36.8558 75.8541 36.8186 75.6305C36.7851 75.4066 36.7367 75.1886 36.6734 74.976L37.2205 74.822ZM37.1703 74.316C37.0177 74.316 36.9023 74.316 36.8242 74.316C36.7497 74.316 36.6381 74.316 36.4892 74.316V73.6945C36.6418 73.6945 36.7553 73.6945 36.8297 73.6945C36.9079 73.6945 37.0214 73.6945 37.1703 73.6945V74.316ZM39.6921 76.945C39.5135 76.945 39.3683 76.9246 39.2567 76.8845C39.1488 76.8441 39.0743 76.7816 39.0334 76.6975L39.1339 76.4995C39.1339 76.701 39.1004 76.8916 39.0334 77.0715C38.9664 77.2511 38.8641 77.4161 38.7264 77.5665C38.5924 77.7205 38.4193 77.8525 38.2072 77.9625C38.0137 78.0615 37.7848 78.1511 37.5206 78.232C37.2564 78.3126 36.9605 78.3821 36.633 78.441C36.5921 78.3161 36.5623 78.221 36.5437 78.155C36.5214 78.0926 36.4916 78.001 36.4544 77.88C37.0424 77.7771 37.4964 77.66 37.8165 77.528C38.1402 77.396 38.3579 77.2601 38.4696 77.121C38.585 76.9851 38.6426 76.8441 38.6426 76.6975C38.6426 76.5765 38.6203 76.3856 38.5756 76.1255C38.531 75.8615 38.4752 75.6011 38.4082 75.3445L38.9497 75.1685C39.0055 75.5095 39.0595 75.757 39.1115 75.911C39.1674 76.0611 39.2418 76.1656 39.3348 76.2245C39.4316 76.2795 39.573 76.307 39.7591 76.307L39.6921 76.945ZM41.0039 74.822C41.0409 75.009 41.0764 75.218 41.1099 75.449C41.1434 75.6761 41.1602 75.8466 41.1602 75.9605C41.1602 76.0666 41.1414 76.175 41.1043 76.285C41.0673 76.395 41.013 76.4956 40.9424 76.5875C40.8719 76.6755 40.7861 76.7431 40.6857 76.791C40.5664 76.8496 40.4197 76.89 40.2447 76.912C40.0736 76.934 39.8895 76.945 39.6921 76.945C39.6735 76.945 39.6585 76.923 39.6473 76.879C39.6324 76.835 39.625 76.7745 39.625 76.6975C39.625 76.6131 39.6324 76.5416 39.6473 76.483C39.6622 76.4241 39.6808 76.3801 39.7031 76.351C39.7218 76.3216 39.7405 76.307 39.7591 76.307C40.0793 76.307 40.3081 76.2905 40.4456 76.2575C40.5872 76.2206 40.6578 76.1731 40.6578 76.1145C40.6578 76.0155 40.639 75.8541 40.6019 75.6305C40.5684 75.4066 40.5202 75.1886 40.4568 74.976L41.0039 74.822ZM39.3403 77.5555C39.5189 77.5555 39.651 77.5555 39.7366 77.5555C39.8222 77.5555 39.9524 77.5555 40.1274 77.5555V78.0725C39.9488 78.0725 39.8167 78.0725 39.7311 78.0725C39.6417 78.0725 39.5115 78.0725 39.3403 78.0725V77.5555ZM40.8587 78.0725C40.6801 78.0725 40.5481 78.0725 40.4624 78.0725C40.3766 78.0725 40.2467 78.0725 40.0716 78.0725V77.5555C40.2502 77.5555 40.3822 77.5555 40.468 77.5555C40.5573 77.5555 40.6877 77.5555 40.8587 77.5555V78.0725ZM44.9908 76.945C44.8086 76.945 44.6523 76.923 44.5219 76.879C44.3915 76.835 44.2818 76.7671 44.1925 76.6755C44.1032 76.5836 44.0362 76.4665 43.9916 76.3235L44.0586 76.318C43.9617 76.4536 43.8317 76.5765 43.6678 76.6865C43.5079 76.7926 43.3309 76.8771 43.1375 76.9395C42.9441 76.9981 42.7579 77.0275 42.5793 77.0275C42.3635 77.0275 42.1997 76.9686 42.088 76.8515C41.9764 76.7305 41.9205 76.5526 41.9205 76.318C41.9205 76.2446 41.9205 76.1805 41.9205 76.1255C41.9205 76.0666 41.9225 75.9915 41.9261 75.9L42.356 75.8725V76.01C42.356 76.1456 42.3839 76.2426 42.4397 76.3015C42.4955 76.3601 42.5924 76.3895 42.73 76.3895C42.9273 76.3895 43.1283 76.34 43.3329 76.241C43.5374 76.142 43.718 76.01 43.8743 75.845L43.8464 75.9935C43.783 75.7111 43.7144 75.436 43.6399 75.1685C43.5653 74.897 43.4688 74.5946 43.3496 74.261L43.8464 74.0245C43.9058 74.2041 43.9601 74.3856 44.0083 74.569C44.0566 74.7486 44.1052 74.9391 44.1535 75.141C44.1834 75.2581 44.2113 75.3756 44.2372 75.493C44.2854 75.713 44.3452 75.8816 44.4158 75.999C44.4864 76.1161 44.5721 76.197 44.6726 76.241C44.7731 76.285 44.9015 76.307 45.0578 76.307L44.9908 76.945ZM43.8688 73.535C43.716 73.535 43.6008 73.535 43.5227 73.535C43.4481 73.535 43.3364 73.535 43.1877 73.535V72.9135C43.3404 72.9135 43.4537 72.9135 43.5282 72.9135C43.6064 72.9135 43.72 72.9135 43.8688 72.9135V73.535ZM46.3026 74.822C46.3397 75.009 46.3752 75.218 46.4087 75.449C46.4422 75.6761 46.4589 75.8466 46.4589 75.9605C46.4589 76.0666 46.4402 76.175 46.4031 76.285C46.366 76.395 46.3118 76.4956 46.2412 76.5875C46.1707 76.6755 46.0849 76.7431 45.9844 76.791C45.8652 76.8496 45.7185 76.89 45.5434 76.912C45.3724 76.934 45.1882 76.945 44.9908 76.945C44.9721 76.945 44.9573 76.923 44.9461 76.879C44.9314 76.835 44.9238 76.7745 44.9238 76.6975C44.9238 76.6131 44.9314 76.5416 44.9461 76.483C44.9609 76.4241 44.9796 76.3801 45.002 76.351C45.0207 76.3216 45.039 76.307 45.0578 76.307C45.378 76.307 45.6068 76.2905 45.7444 76.2575C45.886 76.2206 45.9565 76.1731 45.9565 76.1145C45.9565 76.0155 45.9378 75.8541 45.9007 75.6305C45.8672 75.4066 45.819 75.1886 45.7556 74.976L46.3026 74.822ZM44.6391 77.5555C44.8177 77.5555 44.9497 77.5555 45.0355 77.5555C45.1212 77.5555 45.2512 77.5555 45.4262 77.5555V78.0725C45.2476 78.0725 45.1156 78.0725 45.0299 78.0725C44.9406 78.0725 44.8102 78.0725 44.6391 78.0725V77.5555ZM46.1575 78.0725C45.9789 78.0725 45.8469 78.0725 45.7612 78.0725C45.6754 78.0725 45.5454 78.0725 45.3704 78.0725V77.5555C45.549 77.5555 45.681 77.5555 45.7667 77.5555C45.856 77.5555 45.9864 77.5555 46.1575 77.5555V78.0725ZM45.7109 78.859C45.5694 78.859 45.4633 78.859 45.3927 78.859C45.3257 78.859 45.2233 78.859 45.0857 78.859V78.3255C45.2272 78.3255 45.3313 78.3255 45.3983 78.3255C45.4689 78.3255 45.5733 78.3255 45.7109 78.3255V78.859Z" fill="#997B00"/>
</g>
</g>
<defs>
<linearGradient id="paint0_linear_296_1605" x1="47.25" y1="23.5246" x2="-2.15118" y2="108.567" gradientUnits="userSpaceOnUse">
<stop offset="0.377" stop-color="#FFD60A"/>
<stop offset="1" stop-color="#F5BE09"/>
</linearGradient>
<linearGradient id="paint1_linear_296_1605" x1="40.8922" y1="12.5596" x2="27.3772" y2="48.8767" gradientUnits="userSpaceOnUse">
<stop stop-color="white"/>
<stop offset="1" stop-color="white" stop-opacity="0.56"/>
</linearGradient>
<linearGradient id="paint2_linear_296_1605" x1="29.5775" y1="16.4245" x2="22.6768" y2="33.8682" gradientUnits="userSpaceOnUse">
<stop stop-color="#051A80"/>
<stop offset="1" stop-color="#0A33FF"/>
</linearGradient>
<clipPath id="clip0_296_1605">
<rect width="63" height="88" fill="white" transform="translate(0 0.608398)"/>
</clipPath>
</defs>
</svg>
