<svg width="45" height="29" viewBox="0 0 45 29" fill="none" xmlns="http://www.w3.org/2000/svg">
<path d="M4.25222 25.7244C5.52155 25.7244 6.49222 25.5844 7.16422 25.3044C7.85489 25.0244 8.33089 24.5857 8.59222 23.9884C8.85355 23.4097 8.98422 22.6164 8.98422 21.6084H6.12822C4.50422 21.6084 3.19755 21.1231 2.20822 20.1524C1.21889 19.1817 0.724219 17.8284 0.724219 16.0924C0.724219 14.8977 0.948219 13.8151 1.39622 12.8444C1.86289 11.8737 2.49755 11.1177 3.30022 10.5764C4.12155 10.0164 5.05489 9.7364 6.10022 9.7364C7.22022 9.7364 8.19089 10.0071 9.01222 10.5484C9.85222 11.0711 10.4962 11.8177 10.9442 12.7884C11.4109 13.7404 11.6442 14.8417 11.6442 16.0924V18.5844H13.1842L13.3802 20.1244L13.1842 21.6084H11.6442C11.6442 23.7924 11.0562 25.5284 9.88022 26.8164C8.70422 28.1044 6.82822 28.7484 4.25222 28.7484H1.14422V25.7244H4.25222ZM3.32822 16.0364C3.32822 16.9697 3.55222 17.6417 4.00022 18.0524C4.44822 18.4444 5.15755 18.6404 6.12822 18.6404H8.98422V16.0644C8.98422 15.0004 8.75089 14.1697 8.28422 13.5724C7.81755 12.9751 7.08955 12.6764 6.10022 12.6764C5.20422 12.6764 4.51355 12.9844 4.02822 13.6004C3.56155 14.1977 3.32822 15.0097 3.32822 16.0364ZM26.1828 5.6204L18.2308 9.1484L22.4868 13.4884C22.9721 13.9924 23.3361 14.5524 23.5788 15.1684C23.8401 15.7844 23.9708 16.4097 23.9708 17.0444C23.9708 17.8471 23.7748 18.6031 23.3828 19.3124C23.0094 20.0031 22.4588 20.5631 21.7308 20.9924C21.0028 21.4031 20.1441 21.6084 19.1548 21.6084H12.9108V18.5844H19.1828C19.8921 18.5844 20.4334 18.4537 20.8068 18.1924C21.1988 17.9311 21.3948 17.5857 21.3948 17.1564C21.3948 16.6337 21.1148 16.0924 20.5548 15.5324L15.3468 10.3244L16.1028 6.8524L25.0908 2.8764L26.1828 5.6204ZM16.3828 3.6884L23.6068 0.524398L24.0548 1.6724L16.2148 5.1164L16.3828 3.6884Z" fill="#DE3DEB"/>
<path d="M29.846 25.7244C31.1153 25.7244 32.086 25.5844 32.758 25.3044C33.4486 25.0244 33.9246 24.5857 34.186 23.9884C34.4473 23.4097 34.578 22.6164 34.578 21.6084H31.722C30.098 21.6084 28.7913 21.1231 27.802 20.1524C26.8126 19.1817 26.318 17.8284 26.318 16.0924C26.318 14.8977 26.542 13.8151 26.99 12.8444C27.4566 11.8737 28.0913 11.1177 28.894 10.5764C29.7153 10.0164 30.6486 9.7364 31.694 9.7364C32.814 9.7364 33.7846 10.0071 34.606 10.5484C35.446 11.0711 36.09 11.8177 36.538 12.7884C37.0046 13.7404 37.238 14.8417 37.238 16.0924V18.5844H38.778L38.974 20.1244L38.778 21.6084H37.238C37.238 23.7924 36.65 25.5284 35.474 26.8164C34.298 28.1044 32.422 28.7484 29.846 28.7484H26.738V25.7244H29.846ZM28.922 16.0364C28.922 16.9697 29.146 17.6417 29.594 18.0524C30.042 18.4444 30.7513 18.6404 31.722 18.6404H34.578V16.0644C34.578 15.0004 34.3446 14.1697 33.878 13.5724C33.4113 12.9751 32.6833 12.6764 31.694 12.6764C30.798 12.6764 30.1073 12.9844 29.622 13.6004C29.1553 14.1977 28.922 15.0097 28.922 16.0364ZM44.6085 16.4564C44.6085 17.6137 44.3565 18.5844 43.8525 19.3684C43.3485 20.1337 42.7325 20.7031 42.0045 21.0764C41.2765 21.4311 40.5672 21.6084 39.8765 21.6084H38.5045V18.5844H39.6805C40.4459 18.5844 41.0152 18.4164 41.3885 18.0804C41.7805 17.7257 41.9765 17.1471 41.9765 16.3444V3.2684H44.6085V16.4564Z" fill="#AC3DEB"/>
</svg>
