<svg width="69" height="25" viewBox="0 0 69 25" fill="none" xmlns="http://www.w3.org/2000/svg">
<path d="M3.536 20.76C4.528 20.76 5.28 20.672 5.792 20.496C6.304 20.336 6.656 20.056 6.848 19.656C7.056 19.272 7.176 18.72 7.208 18H5.144C3.624 18 2.416 17.56 1.52 16.68C0.64 15.784 0.2 14.536 0.2 12.936C0.2 11.8 0.408 10.792 0.824 9.912C1.256 9.032 1.84 8.352 2.576 7.872C3.328 7.376 4.176 7.128 5.12 7.128C6.144 7.128 7.04 7.368 7.808 7.848C8.592 8.328 9.192 9.008 9.608 9.888C10.04 10.768 10.256 11.784 10.256 12.936V14.544H11.576L11.768 16.296L11.576 18H10.256C10.192 19.872 9.616 21.376 8.528 22.512C7.44 23.648 5.776 24.216 3.536 24.216H0.68V20.76H3.536ZM3.128 12.768C3.128 13.424 3.288 13.912 3.608 14.232C3.928 14.536 4.44 14.688 5.144 14.688H7.208V12.864C7.208 11.2 6.512 10.368 5.12 10.368C4.464 10.368 3.968 10.592 3.632 11.04C3.296 11.488 3.128 12.064 3.128 12.768ZM18.9333 9.96V13.44C18.9333 13.856 19.0453 14.144 19.2693 14.304C19.4933 14.464 19.8453 14.544 20.3253 14.544H21.6213L21.7653 16.368L21.6213 18H20.3253C19.8293 18 19.3093 17.904 18.7653 17.712C18.2213 17.504 17.7413 17.208 17.3253 16.824C16.8773 17.208 16.3653 17.504 15.7893 17.712C15.2293 17.904 14.6533 18 14.0613 18H11.3253V14.544H14.0613C14.7333 14.544 15.2053 14.456 15.4773 14.28C15.7493 14.088 15.8853 13.768 15.8853 13.32V9.96H18.9333ZM11.9493 4.296H14.8053V7.152H11.9493V4.296ZM16.4373 4.296H19.3173V7.152H16.4373V4.296Z" fill="#DE3DEB"/>
<path d="M32.876 3.576L26.156 6.528L29.852 10.296C30.332 10.776 30.692 11.312 30.932 11.904C31.172 12.48 31.292 13.072 31.292 13.68C31.292 14.448 31.108 15.16 30.74 15.816C30.388 16.472 29.86 17 29.156 17.4C28.468 17.8 27.66 18 26.732 18H21.38V14.544H26.804C27.22 14.544 27.54 14.464 27.764 14.304C28.004 14.128 28.124 13.904 28.124 13.632C28.124 13.296 27.956 12.96 27.62 12.624L22.844 7.824L23.588 3.96L31.628 0.407999L32.876 3.576ZM39.9073 6.912C41.6993 9.696 42.5473 11.016 42.4513 10.872C43.0753 11.88 43.3873 12.88 43.3873 13.872C43.3873 14.736 43.1633 15.48 42.7153 16.104C42.2353 16.792 41.6433 17.28 40.9393 17.568C40.2513 17.856 39.4273 18 38.4673 18H37.1953C36.1873 18 35.2993 17.84 34.5312 17.52C33.7633 17.184 33.1633 16.824 32.7313 16.44L34.1713 13.68C34.4753 13.872 34.8753 14.064 35.3713 14.256C35.8833 14.448 36.4993 14.544 37.2193 14.544H38.3953C38.9393 14.544 39.3473 14.512 39.6193 14.448C39.8913 14.368 40.0913 14.232 40.2193 14.04C40.2993 13.912 40.3393 13.784 40.3393 13.656C40.3393 13.4 40.1953 13.048 39.9073 12.6C38.8993 11.064 37.6753 9.24 36.2353 7.128L38.8033 5.208L39.9073 6.912ZM49.1219 20.76C50.1139 20.76 50.8659 20.672 51.3779 20.496C51.8899 20.336 52.2419 20.056 52.4339 19.656C52.6419 19.272 52.7619 18.72 52.7939 18H50.7299C49.2099 18 48.0019 17.56 47.1059 16.68C46.2259 15.784 45.7859 14.536 45.7859 12.936C45.7859 11.8 45.9939 10.792 46.4099 9.912C46.8419 9.032 47.4259 8.352 48.1619 7.872C48.9139 7.376 49.7619 7.128 50.7059 7.128C51.7299 7.128 52.6259 7.368 53.3939 7.848C54.1779 8.328 54.7779 9.008 55.1939 9.888C55.6259 10.768 55.8419 11.784 55.8419 12.936V14.544H57.1619L57.3539 16.296L57.1619 18H55.8419C55.7779 19.872 55.2019 21.376 54.1139 22.512C53.0259 23.648 51.3619 24.216 49.1219 24.216H46.2659V20.76H49.1219ZM48.7139 12.768C48.7139 13.424 48.8739 13.912 49.1939 14.232C49.5139 14.536 50.0259 14.688 50.7299 14.688H52.7939V12.864C52.7939 11.2 52.0979 10.368 50.7059 10.368C50.0499 10.368 49.5539 10.592 49.2179 11.04C48.8819 11.488 48.7139 12.064 48.7139 12.768ZM68.4073 3.576L61.6873 6.528L65.3833 10.296C65.8633 10.776 66.2233 11.312 66.4633 11.904C66.7033 12.48 66.8233 13.072 66.8233 13.68C66.8233 14.448 66.6393 15.16 66.2713 15.816C65.9193 16.472 65.3913 17 64.6873 17.4C63.9993 17.8 63.1913 18 62.2633 18H56.9112V14.544H62.3353C62.7513 14.544 63.0713 14.464 63.2953 14.304C63.5353 14.128 63.6553 13.904 63.6553 13.632C63.6553 13.296 63.4873 12.96 63.1513 12.624L58.3753 7.824L59.1193 3.96L67.1593 0.407999L68.4073 3.576Z" fill="#AC3DEB"/>
</svg>
